%TF.GenerationSoftware,KiCad,Pcbnew,7.0.10*%
%TF.CreationDate,2024-01-27T03:33:38-06:00*%
%TF.ProjectId,STM32H503CBT6,53544d33-3248-4353-9033-434254362e6b,rev?*%
%TF.SameCoordinates,Original*%
%TF.FileFunction,Drillmap*%
%TF.FilePolarity,Positive*%
%FSLAX45Y45*%
G04 Gerber Fmt 4.5, Leading zero omitted, Abs format (unit mm)*
G04 Created by KiCad (PCBNEW 7.0.10) date 2024-01-27 03:33:38*
%MOMM*%
%LPD*%
G01*
G04 APERTURE LIST*
%ADD10C,0.100000*%
%ADD11C,0.200000*%
G04 APERTURE END LIST*
D10*
X9030000Y-5970000D02*
X9750000Y-5970000D01*
X8490000Y-5540000D02*
X8490000Y-10450000D01*
X10240000Y-10500000D02*
G75*
G03*
X10290000Y-10450000I0J50000D01*
G01*
X10290000Y-10450000D02*
X10290000Y-5550000D01*
X9029640Y-5550000D02*
G75*
G03*
X8979645Y-5500000I-50000J0D01*
G01*
X8530000Y-5500000D02*
G75*
G03*
X8490000Y-5540000I0J-40000D01*
G01*
X8979645Y-5500000D02*
X8530000Y-5500000D01*
X8490355Y-10449645D02*
G75*
G03*
X8540355Y-10499645I50005J5D01*
G01*
X8540000Y-10500000D02*
X10240000Y-10500000D01*
X9750000Y-5970000D02*
X9750000Y-5540000D01*
X9790284Y-5500004D02*
G75*
G03*
X9750284Y-5540000I-4J-39996D01*
G01*
X9790284Y-5500000D02*
X10239645Y-5500000D01*
X9030000Y-5550000D02*
X9030000Y-5970000D01*
X10289640Y-5550000D02*
G75*
G03*
X10239645Y-5500000I-50000J0D01*
G01*
D11*
D10*
X8525000Y-8905000D02*
X8555000Y-8935000D01*
X8555000Y-8905000D02*
X8525000Y-8935000D01*
X8655000Y-8895000D02*
X8685000Y-8925000D01*
X8685000Y-8895000D02*
X8655000Y-8925000D01*
X8705000Y-8355000D02*
X8735000Y-8385000D01*
X8735000Y-8355000D02*
X8705000Y-8385000D01*
X8715000Y-8625000D02*
X8745000Y-8655000D01*
X8745000Y-8625000D02*
X8715000Y-8655000D01*
X8775000Y-6425000D02*
X8805000Y-6455000D01*
X8805000Y-6425000D02*
X8775000Y-6455000D01*
X8775000Y-6495000D02*
X8805000Y-6525000D01*
X8805000Y-6495000D02*
X8775000Y-6525000D01*
X8775000Y-6565000D02*
X8805000Y-6595000D01*
X8805000Y-6565000D02*
X8775000Y-6595000D01*
X8785000Y-6665000D02*
X8815000Y-6695000D01*
X8815000Y-6665000D02*
X8785000Y-6695000D01*
X8815000Y-7995000D02*
X8845000Y-8025000D01*
X8845000Y-7995000D02*
X8815000Y-8025000D01*
X8845000Y-6425000D02*
X8875000Y-6455000D01*
X8875000Y-6425000D02*
X8845000Y-6455000D01*
X8845000Y-6495000D02*
X8875000Y-6525000D01*
X8875000Y-6495000D02*
X8845000Y-6525000D01*
X8855000Y-6665000D02*
X8885000Y-6695000D01*
X8885000Y-6665000D02*
X8855000Y-6695000D01*
X8882191Y-8662191D02*
X8912191Y-8692191D01*
X8912191Y-8662191D02*
X8882191Y-8692191D01*
X8885000Y-9485000D02*
X8915000Y-9515000D01*
X8915000Y-9485000D02*
X8885000Y-9515000D01*
X8895000Y-6605000D02*
X8925000Y-6635000D01*
X8925000Y-6605000D02*
X8895000Y-6635000D01*
X8895000Y-7805000D02*
X8925000Y-7835000D01*
X8925000Y-7805000D02*
X8895000Y-7835000D01*
X8895000Y-9255000D02*
X8925000Y-9285000D01*
X8925000Y-9255000D02*
X8895000Y-9285000D01*
X8905000Y-7705000D02*
X8935000Y-7735000D01*
X8935000Y-7705000D02*
X8905000Y-7735000D01*
X8925000Y-6665000D02*
X8955000Y-6695000D01*
X8955000Y-6665000D02*
X8925000Y-6695000D01*
X8925000Y-9995000D02*
X8955000Y-10025000D01*
X8955000Y-9995000D02*
X8925000Y-10025000D01*
X8925000Y-10075000D02*
X8955000Y-10105000D01*
X8955000Y-10075000D02*
X8925000Y-10105000D01*
X8965000Y-9485000D02*
X8995000Y-9515000D01*
X8995000Y-9485000D02*
X8965000Y-9515000D01*
X8975000Y-8405000D02*
X9005000Y-8435000D01*
X9005000Y-8405000D02*
X8975000Y-8435000D01*
X8981572Y-8011379D02*
X9011572Y-8041379D01*
X9011572Y-8011379D02*
X8981572Y-8041379D01*
X8995000Y-6595000D02*
X9025000Y-6625000D01*
X9025000Y-6595000D02*
X8995000Y-6625000D01*
X8995000Y-6665000D02*
X9025000Y-6695000D01*
X9025000Y-6665000D02*
X8995000Y-6695000D01*
X9005000Y-9995000D02*
X9035000Y-10025000D01*
X9035000Y-9995000D02*
X9005000Y-10025000D01*
X9005000Y-10075000D02*
X9035000Y-10105000D01*
X9035000Y-10075000D02*
X9005000Y-10105000D01*
X9025060Y-7885350D02*
X9055060Y-7915350D01*
X9055060Y-7885350D02*
X9025060Y-7915350D01*
X9035000Y-8335000D02*
X9065000Y-8365000D01*
X9065000Y-8335000D02*
X9035000Y-8365000D01*
X9065000Y-6595000D02*
X9095000Y-6625000D01*
X9095000Y-6595000D02*
X9065000Y-6625000D01*
X9065000Y-6665000D02*
X9095000Y-6695000D01*
X9095000Y-6665000D02*
X9065000Y-6695000D01*
X9075000Y-8515000D02*
X9105000Y-8545000D01*
X9105000Y-8515000D02*
X9075000Y-8545000D01*
X9085000Y-9995000D02*
X9115000Y-10025000D01*
X9115000Y-9995000D02*
X9085000Y-10025000D01*
X9085000Y-10075000D02*
X9115000Y-10105000D01*
X9115000Y-10075000D02*
X9085000Y-10105000D01*
X9105000Y-6075000D02*
X9135000Y-6105000D01*
X9135000Y-6075000D02*
X9105000Y-6105000D01*
X9105000Y-6145000D02*
X9135000Y-6175000D01*
X9135000Y-6145000D02*
X9105000Y-6175000D01*
X9115000Y-9285000D02*
X9145000Y-9315000D01*
X9145000Y-9285000D02*
X9115000Y-9315000D01*
X9125000Y-8255000D02*
X9155000Y-8285000D01*
X9155000Y-8255000D02*
X9125000Y-8285000D01*
X9127443Y-7592557D02*
X9157443Y-7622557D01*
X9157443Y-7592557D02*
X9127443Y-7622557D01*
X9135000Y-6595000D02*
X9165000Y-6625000D01*
X9165000Y-6595000D02*
X9135000Y-6625000D01*
X9135000Y-6665000D02*
X9165000Y-6695000D01*
X9165000Y-6665000D02*
X9135000Y-6695000D01*
X9135000Y-7015000D02*
X9165000Y-7045000D01*
X9165000Y-7015000D02*
X9135000Y-7045000D01*
X9135000Y-7225000D02*
X9165000Y-7255000D01*
X9165000Y-7225000D02*
X9135000Y-7255000D01*
X9135000Y-8565000D02*
X9165000Y-8595000D01*
X9165000Y-8565000D02*
X9135000Y-8595000D01*
X9175000Y-6075000D02*
X9205000Y-6105000D01*
X9205000Y-6075000D02*
X9175000Y-6105000D01*
X9175000Y-6145000D02*
X9205000Y-6175000D01*
X9205000Y-6145000D02*
X9175000Y-6175000D01*
X9185000Y-9215000D02*
X9215000Y-9245000D01*
X9215000Y-9215000D02*
X9185000Y-9245000D01*
X9195000Y-8445000D02*
X9225000Y-8475000D01*
X9225000Y-8445000D02*
X9195000Y-8475000D01*
X9205000Y-6665000D02*
X9235000Y-6695000D01*
X9235000Y-6665000D02*
X9205000Y-6695000D01*
X9205000Y-7715000D02*
X9235000Y-7745000D01*
X9235000Y-7715000D02*
X9205000Y-7745000D01*
X9205000Y-7785000D02*
X9235000Y-7815000D01*
X9235000Y-7785000D02*
X9205000Y-7815000D01*
X9235000Y-8655000D02*
X9265000Y-8685000D01*
X9265000Y-8655000D02*
X9235000Y-8685000D01*
X9235000Y-9155000D02*
X9265000Y-9185000D01*
X9265000Y-9155000D02*
X9235000Y-9185000D01*
X9245000Y-8535000D02*
X9275000Y-8565000D01*
X9275000Y-8535000D02*
X9245000Y-8565000D01*
X9255000Y-7575000D02*
X9285000Y-7605000D01*
X9285000Y-7575000D02*
X9255000Y-7605000D01*
X9255000Y-8375000D02*
X9285000Y-8405000D01*
X9285000Y-8375000D02*
X9255000Y-8405000D01*
X9275000Y-8135000D02*
X9305000Y-8165000D01*
X9305000Y-8135000D02*
X9275000Y-8165000D01*
X9305000Y-7235000D02*
X9335000Y-7265000D01*
X9335000Y-7235000D02*
X9305000Y-7265000D01*
X9335000Y-8045000D02*
X9365000Y-8075000D01*
X9365000Y-8045000D02*
X9335000Y-8075000D01*
X9335000Y-8775000D02*
X9365000Y-8805000D01*
X9365000Y-8775000D02*
X9335000Y-8805000D01*
X9345000Y-8225000D02*
X9375000Y-8255000D01*
X9375000Y-8225000D02*
X9345000Y-8255000D01*
X9375000Y-6625000D02*
X9405000Y-6655000D01*
X9405000Y-6625000D02*
X9375000Y-6655000D01*
X9375000Y-7875000D02*
X9405000Y-7905000D01*
X9405000Y-7875000D02*
X9375000Y-7905000D01*
X9395000Y-8705000D02*
X9425000Y-8735000D01*
X9425000Y-8705000D02*
X9395000Y-8735000D01*
X9465000Y-8075000D02*
X9495000Y-8105000D01*
X9495000Y-8075000D02*
X9465000Y-8105000D01*
X9475000Y-6625000D02*
X9505000Y-6655000D01*
X9505000Y-6625000D02*
X9475000Y-6655000D01*
X9475000Y-7625000D02*
X9505000Y-7655000D01*
X9505000Y-7625000D02*
X9475000Y-7655000D01*
X9535000Y-7595000D02*
X9565000Y-7625000D01*
X9565000Y-7595000D02*
X9535000Y-7625000D01*
X9565000Y-8585000D02*
X9595000Y-8615000D01*
X9595000Y-8585000D02*
X9565000Y-8615000D01*
X9585000Y-9645000D02*
X9615000Y-9675000D01*
X9615000Y-9645000D02*
X9585000Y-9675000D01*
X9585000Y-9715000D02*
X9615000Y-9745000D01*
X9615000Y-9715000D02*
X9585000Y-9745000D01*
X9585000Y-9785000D02*
X9615000Y-9815000D01*
X9615000Y-9785000D02*
X9585000Y-9815000D01*
X9615000Y-6375000D02*
X9645000Y-6405000D01*
X9645000Y-6375000D02*
X9615000Y-6405000D01*
X9615000Y-8245000D02*
X9645000Y-8275000D01*
X9645000Y-8245000D02*
X9615000Y-8275000D01*
X9635000Y-6075000D02*
X9665000Y-6105000D01*
X9665000Y-6075000D02*
X9635000Y-6105000D01*
X9635000Y-6145000D02*
X9665000Y-6175000D01*
X9665000Y-6145000D02*
X9635000Y-6175000D01*
X9635000Y-7855000D02*
X9665000Y-7885000D01*
X9665000Y-7855000D02*
X9635000Y-7885000D01*
X9655000Y-9645000D02*
X9685000Y-9675000D01*
X9685000Y-9645000D02*
X9655000Y-9675000D01*
X9655000Y-9715000D02*
X9685000Y-9745000D01*
X9685000Y-9715000D02*
X9655000Y-9745000D01*
X9705000Y-6075000D02*
X9735000Y-6105000D01*
X9735000Y-6075000D02*
X9705000Y-6105000D01*
X9705000Y-6145000D02*
X9735000Y-6175000D01*
X9735000Y-6145000D02*
X9705000Y-6175000D01*
X9725000Y-7625000D02*
X9755000Y-7655000D01*
X9755000Y-7625000D02*
X9725000Y-7655000D01*
X9735000Y-8445000D02*
X9765000Y-8475000D01*
X9765000Y-8445000D02*
X9735000Y-8475000D01*
X9765000Y-6665000D02*
X9795000Y-6695000D01*
X9795000Y-6665000D02*
X9765000Y-6695000D01*
X9775000Y-9825000D02*
X9805000Y-9855000D01*
X9805000Y-9825000D02*
X9775000Y-9855000D01*
X9795000Y-7625000D02*
X9825000Y-7655000D01*
X9825000Y-7625000D02*
X9795000Y-7655000D01*
X9865000Y-7115000D02*
X9895000Y-7145000D01*
X9895000Y-7115000D02*
X9865000Y-7145000D01*
X9865000Y-7205000D02*
X9895000Y-7235000D01*
X9895000Y-7205000D02*
X9865000Y-7235000D01*
X9995000Y-8435000D02*
X10025000Y-8465000D01*
X10025000Y-8435000D02*
X9995000Y-8465000D01*
X10005000Y-8325000D02*
X10035000Y-8355000D01*
X10035000Y-8325000D02*
X10005000Y-8355000D01*
X8940000Y-5987500D02*
G75*
G03*
X8880000Y-5987500I-30000J0D01*
G01*
X8880000Y-5987500D02*
G75*
G03*
X8940000Y-5987500I30000J0D01*
G01*
X8940000Y-6042500D02*
X8940000Y-5932500D01*
X8940000Y-5932500D02*
G75*
G03*
X8880000Y-5932500I-30000J0D01*
G01*
X8880000Y-5932500D02*
X8880000Y-6042500D01*
X8880000Y-6042500D02*
G75*
G03*
X8940000Y-6042500I30000J0D01*
G01*
X9900000Y-5987500D02*
G75*
G03*
X9840000Y-5987500I-30000J0D01*
G01*
X9840000Y-5987500D02*
G75*
G03*
X9900000Y-5987500I30000J0D01*
G01*
X9900000Y-6042500D02*
X9900000Y-5932500D01*
X9900000Y-5932500D02*
G75*
G03*
X9840000Y-5932500I-30000J0D01*
G01*
X9840000Y-5932500D02*
X9840000Y-6042500D01*
X9840000Y-6042500D02*
G75*
G03*
X9900000Y-6042500I30000J0D01*
G01*
X8910000Y-5617500D02*
X8910000Y-5687500D01*
X8875000Y-5652500D02*
X8945000Y-5652500D01*
X8945000Y-5702500D02*
X8945000Y-5602500D01*
X8945000Y-5602500D02*
G75*
G03*
X8875000Y-5602500I-35000J0D01*
G01*
X8875000Y-5602500D02*
X8875000Y-5702500D01*
X8875000Y-5702500D02*
G75*
G03*
X8945000Y-5702500I35000J0D01*
G01*
X9870000Y-5617500D02*
X9870000Y-5687500D01*
X9835000Y-5652500D02*
X9905000Y-5652500D01*
X9905000Y-5702500D02*
X9905000Y-5602500D01*
X9905000Y-5602500D02*
G75*
G03*
X9835000Y-5602500I-35000J0D01*
G01*
X9835000Y-5602500D02*
X9835000Y-5702500D01*
X9835000Y-5702500D02*
G75*
G03*
X9905000Y-5702500I35000J0D01*
G01*
X8661356Y-5773356D02*
X8661356Y-5702644D01*
X8590644Y-5702644D01*
X8590644Y-5773356D01*
X8661356Y-5773356D01*
X8661356Y-6027356D02*
X8661356Y-5956644D01*
X8590644Y-5956644D01*
X8590644Y-6027356D01*
X8661356Y-6027356D01*
X8661356Y-6281356D02*
X8661356Y-6210644D01*
X8590644Y-6210644D01*
X8590644Y-6281356D01*
X8661356Y-6281356D01*
X8661356Y-6535356D02*
X8661356Y-6464644D01*
X8590644Y-6464644D01*
X8590644Y-6535356D01*
X8661356Y-6535356D01*
X8661356Y-6789356D02*
X8661356Y-6718644D01*
X8590644Y-6718644D01*
X8590644Y-6789356D01*
X8661356Y-6789356D01*
X8661356Y-7043356D02*
X8661356Y-6972644D01*
X8590644Y-6972644D01*
X8590644Y-7043356D01*
X8661356Y-7043356D01*
X8661356Y-7297356D02*
X8661356Y-7226644D01*
X8590644Y-7226644D01*
X8590644Y-7297356D01*
X8661356Y-7297356D01*
X8661356Y-7551356D02*
X8661356Y-7480644D01*
X8590644Y-7480644D01*
X8590644Y-7551356D01*
X8661356Y-7551356D01*
X8661356Y-7805356D02*
X8661356Y-7734644D01*
X8590644Y-7734644D01*
X8590644Y-7805356D01*
X8661356Y-7805356D01*
X8661356Y-8059356D02*
X8661356Y-7988644D01*
X8590644Y-7988644D01*
X8590644Y-8059356D01*
X8661356Y-8059356D01*
X8661356Y-8313356D02*
X8661356Y-8242644D01*
X8590644Y-8242644D01*
X8590644Y-8313356D01*
X8661356Y-8313356D01*
X8661356Y-8567356D02*
X8661356Y-8496644D01*
X8590644Y-8496644D01*
X8590644Y-8567356D01*
X8661356Y-8567356D01*
X8661356Y-8821356D02*
X8661356Y-8750644D01*
X8590644Y-8750644D01*
X8590644Y-8821356D01*
X8661356Y-8821356D01*
X8661356Y-9075356D02*
X8661356Y-9004644D01*
X8590644Y-9004644D01*
X8590644Y-9075356D01*
X8661356Y-9075356D01*
X8661356Y-9329356D02*
X8661356Y-9258644D01*
X8590644Y-9258644D01*
X8590644Y-9329356D01*
X8661356Y-9329356D01*
X8661356Y-9583356D02*
X8661356Y-9512644D01*
X8590644Y-9512644D01*
X8590644Y-9583356D01*
X8661356Y-9583356D01*
X8661356Y-9837356D02*
X8661356Y-9766644D01*
X8590644Y-9766644D01*
X8590644Y-9837356D01*
X8661356Y-9837356D01*
X8661356Y-10091356D02*
X8661356Y-10020644D01*
X8590644Y-10020644D01*
X8590644Y-10091356D01*
X8661356Y-10091356D01*
X8661356Y-10345356D02*
X8661356Y-10274644D01*
X8590644Y-10274644D01*
X8590644Y-10345356D01*
X8661356Y-10345356D01*
X9043356Y-10345356D02*
X9043356Y-10274644D01*
X8972644Y-10274644D01*
X8972644Y-10345356D01*
X9043356Y-10345356D01*
X9297356Y-10345356D02*
X9297356Y-10274644D01*
X9226644Y-10274644D01*
X9226644Y-10345356D01*
X9297356Y-10345356D01*
X9551356Y-10345356D02*
X9551356Y-10274644D01*
X9480644Y-10274644D01*
X9480644Y-10345356D01*
X9551356Y-10345356D01*
X9805356Y-10345356D02*
X9805356Y-10274644D01*
X9734644Y-10274644D01*
X9734644Y-10345356D01*
X9805356Y-10345356D01*
X10185356Y-5773356D02*
X10185356Y-5702644D01*
X10114644Y-5702644D01*
X10114644Y-5773356D01*
X10185356Y-5773356D01*
X10185356Y-6027356D02*
X10185356Y-5956644D01*
X10114644Y-5956644D01*
X10114644Y-6027356D01*
X10185356Y-6027356D01*
X10185356Y-6281356D02*
X10185356Y-6210644D01*
X10114644Y-6210644D01*
X10114644Y-6281356D01*
X10185356Y-6281356D01*
X10185356Y-6535356D02*
X10185356Y-6464644D01*
X10114644Y-6464644D01*
X10114644Y-6535356D01*
X10185356Y-6535356D01*
X10185356Y-6789356D02*
X10185356Y-6718644D01*
X10114644Y-6718644D01*
X10114644Y-6789356D01*
X10185356Y-6789356D01*
X10185356Y-7043356D02*
X10185356Y-6972644D01*
X10114644Y-6972644D01*
X10114644Y-7043356D01*
X10185356Y-7043356D01*
X10185356Y-7297356D02*
X10185356Y-7226644D01*
X10114644Y-7226644D01*
X10114644Y-7297356D01*
X10185356Y-7297356D01*
X10185356Y-7551356D02*
X10185356Y-7480644D01*
X10114644Y-7480644D01*
X10114644Y-7551356D01*
X10185356Y-7551356D01*
X10185356Y-7805356D02*
X10185356Y-7734644D01*
X10114644Y-7734644D01*
X10114644Y-7805356D01*
X10185356Y-7805356D01*
X10185356Y-8059356D02*
X10185356Y-7988644D01*
X10114644Y-7988644D01*
X10114644Y-8059356D01*
X10185356Y-8059356D01*
X10185356Y-8313356D02*
X10185356Y-8242644D01*
X10114644Y-8242644D01*
X10114644Y-8313356D01*
X10185356Y-8313356D01*
X10185356Y-8567356D02*
X10185356Y-8496644D01*
X10114644Y-8496644D01*
X10114644Y-8567356D01*
X10185356Y-8567356D01*
X10185356Y-8821356D02*
X10185356Y-8750644D01*
X10114644Y-8750644D01*
X10114644Y-8821356D01*
X10185356Y-8821356D01*
X10185356Y-9075356D02*
X10185356Y-9004644D01*
X10114644Y-9004644D01*
X10114644Y-9075356D01*
X10185356Y-9075356D01*
X10185356Y-9329356D02*
X10185356Y-9258644D01*
X10114644Y-9258644D01*
X10114644Y-9329356D01*
X10185356Y-9329356D01*
X10185356Y-9583356D02*
X10185356Y-9512644D01*
X10114644Y-9512644D01*
X10114644Y-9583356D01*
X10185356Y-9583356D01*
X10185356Y-9837356D02*
X10185356Y-9766644D01*
X10114644Y-9766644D01*
X10114644Y-9837356D01*
X10185356Y-9837356D01*
X10185356Y-10091356D02*
X10185356Y-10020644D01*
X10114644Y-10020644D01*
X10114644Y-10091356D01*
X10185356Y-10091356D01*
X10185356Y-10345356D02*
X10185356Y-10274644D01*
X10114644Y-10274644D01*
X10114644Y-10345356D01*
X10185356Y-10345356D01*
D11*
X8745777Y-10816484D02*
X8745777Y-10616484D01*
X8745777Y-10616484D02*
X8793396Y-10616484D01*
X8793396Y-10616484D02*
X8821967Y-10626008D01*
X8821967Y-10626008D02*
X8841015Y-10645055D01*
X8841015Y-10645055D02*
X8850539Y-10664103D01*
X8850539Y-10664103D02*
X8860063Y-10702198D01*
X8860063Y-10702198D02*
X8860063Y-10730770D01*
X8860063Y-10730770D02*
X8850539Y-10768865D01*
X8850539Y-10768865D02*
X8841015Y-10787912D01*
X8841015Y-10787912D02*
X8821967Y-10806960D01*
X8821967Y-10806960D02*
X8793396Y-10816484D01*
X8793396Y-10816484D02*
X8745777Y-10816484D01*
X8945777Y-10816484D02*
X8945777Y-10683150D01*
X8945777Y-10721246D02*
X8955301Y-10702198D01*
X8955301Y-10702198D02*
X8964824Y-10692674D01*
X8964824Y-10692674D02*
X8983872Y-10683150D01*
X8983872Y-10683150D02*
X9002920Y-10683150D01*
X9069586Y-10816484D02*
X9069586Y-10683150D01*
X9069586Y-10616484D02*
X9060063Y-10626008D01*
X9060063Y-10626008D02*
X9069586Y-10635531D01*
X9069586Y-10635531D02*
X9079110Y-10626008D01*
X9079110Y-10626008D02*
X9069586Y-10616484D01*
X9069586Y-10616484D02*
X9069586Y-10635531D01*
X9193396Y-10816484D02*
X9174348Y-10806960D01*
X9174348Y-10806960D02*
X9164824Y-10787912D01*
X9164824Y-10787912D02*
X9164824Y-10616484D01*
X9298158Y-10816484D02*
X9279110Y-10806960D01*
X9279110Y-10806960D02*
X9269586Y-10787912D01*
X9269586Y-10787912D02*
X9269586Y-10616484D01*
X9526729Y-10816484D02*
X9526729Y-10616484D01*
X9526729Y-10616484D02*
X9593396Y-10759341D01*
X9593396Y-10759341D02*
X9660063Y-10616484D01*
X9660063Y-10616484D02*
X9660063Y-10816484D01*
X9841015Y-10816484D02*
X9841015Y-10711722D01*
X9841015Y-10711722D02*
X9831491Y-10692674D01*
X9831491Y-10692674D02*
X9812444Y-10683150D01*
X9812444Y-10683150D02*
X9774348Y-10683150D01*
X9774348Y-10683150D02*
X9755301Y-10692674D01*
X9841015Y-10806960D02*
X9821967Y-10816484D01*
X9821967Y-10816484D02*
X9774348Y-10816484D01*
X9774348Y-10816484D02*
X9755301Y-10806960D01*
X9755301Y-10806960D02*
X9745777Y-10787912D01*
X9745777Y-10787912D02*
X9745777Y-10768865D01*
X9745777Y-10768865D02*
X9755301Y-10749817D01*
X9755301Y-10749817D02*
X9774348Y-10740293D01*
X9774348Y-10740293D02*
X9821967Y-10740293D01*
X9821967Y-10740293D02*
X9841015Y-10730770D01*
X9936253Y-10683150D02*
X9936253Y-10883150D01*
X9936253Y-10692674D02*
X9955301Y-10683150D01*
X9955301Y-10683150D02*
X9993396Y-10683150D01*
X9993396Y-10683150D02*
X10012444Y-10692674D01*
X10012444Y-10692674D02*
X10021967Y-10702198D01*
X10021967Y-10702198D02*
X10031491Y-10721246D01*
X10031491Y-10721246D02*
X10031491Y-10778389D01*
X10031491Y-10778389D02*
X10021967Y-10797436D01*
X10021967Y-10797436D02*
X10012444Y-10806960D01*
X10012444Y-10806960D02*
X9993396Y-10816484D01*
X9993396Y-10816484D02*
X9955301Y-10816484D01*
X9955301Y-10816484D02*
X9936253Y-10806960D01*
X10117205Y-10797436D02*
X10126729Y-10806960D01*
X10126729Y-10806960D02*
X10117205Y-10816484D01*
X10117205Y-10816484D02*
X10107682Y-10806960D01*
X10107682Y-10806960D02*
X10117205Y-10797436D01*
X10117205Y-10797436D02*
X10117205Y-10816484D01*
X10117205Y-10692674D02*
X10126729Y-10702198D01*
X10126729Y-10702198D02*
X10117205Y-10711722D01*
X10117205Y-10711722D02*
X10107682Y-10702198D01*
X10107682Y-10702198D02*
X10117205Y-10692674D01*
X10117205Y-10692674D02*
X10117205Y-10711722D01*
D10*
X8455000Y-11130000D02*
X8485000Y-11160000D01*
X8485000Y-11130000D02*
X8455000Y-11160000D01*
D11*
X8783872Y-11036484D02*
X8802920Y-11036484D01*
X8802920Y-11036484D02*
X8821967Y-11046008D01*
X8821967Y-11046008D02*
X8831491Y-11055531D01*
X8831491Y-11055531D02*
X8841015Y-11074579D01*
X8841015Y-11074579D02*
X8850539Y-11112674D01*
X8850539Y-11112674D02*
X8850539Y-11160293D01*
X8850539Y-11160293D02*
X8841015Y-11198388D01*
X8841015Y-11198388D02*
X8831491Y-11217436D01*
X8831491Y-11217436D02*
X8821967Y-11226960D01*
X8821967Y-11226960D02*
X8802920Y-11236484D01*
X8802920Y-11236484D02*
X8783872Y-11236484D01*
X8783872Y-11236484D02*
X8764824Y-11226960D01*
X8764824Y-11226960D02*
X8755301Y-11217436D01*
X8755301Y-11217436D02*
X8745777Y-11198388D01*
X8745777Y-11198388D02*
X8736253Y-11160293D01*
X8736253Y-11160293D02*
X8736253Y-11112674D01*
X8736253Y-11112674D02*
X8745777Y-11074579D01*
X8745777Y-11074579D02*
X8755301Y-11055531D01*
X8755301Y-11055531D02*
X8764824Y-11046008D01*
X8764824Y-11046008D02*
X8783872Y-11036484D01*
X8936253Y-11217436D02*
X8945777Y-11226960D01*
X8945777Y-11226960D02*
X8936253Y-11236484D01*
X8936253Y-11236484D02*
X8926729Y-11226960D01*
X8926729Y-11226960D02*
X8936253Y-11217436D01*
X8936253Y-11217436D02*
X8936253Y-11236484D01*
X9012444Y-11036484D02*
X9136253Y-11036484D01*
X9136253Y-11036484D02*
X9069586Y-11112674D01*
X9069586Y-11112674D02*
X9098158Y-11112674D01*
X9098158Y-11112674D02*
X9117205Y-11122198D01*
X9117205Y-11122198D02*
X9126729Y-11131722D01*
X9126729Y-11131722D02*
X9136253Y-11150770D01*
X9136253Y-11150770D02*
X9136253Y-11198388D01*
X9136253Y-11198388D02*
X9126729Y-11217436D01*
X9126729Y-11217436D02*
X9117205Y-11226960D01*
X9117205Y-11226960D02*
X9098158Y-11236484D01*
X9098158Y-11236484D02*
X9041015Y-11236484D01*
X9041015Y-11236484D02*
X9021967Y-11226960D01*
X9021967Y-11226960D02*
X9012444Y-11217436D01*
X9260063Y-11036484D02*
X9279110Y-11036484D01*
X9279110Y-11036484D02*
X9298158Y-11046008D01*
X9298158Y-11046008D02*
X9307682Y-11055531D01*
X9307682Y-11055531D02*
X9317205Y-11074579D01*
X9317205Y-11074579D02*
X9326729Y-11112674D01*
X9326729Y-11112674D02*
X9326729Y-11160293D01*
X9326729Y-11160293D02*
X9317205Y-11198388D01*
X9317205Y-11198388D02*
X9307682Y-11217436D01*
X9307682Y-11217436D02*
X9298158Y-11226960D01*
X9298158Y-11226960D02*
X9279110Y-11236484D01*
X9279110Y-11236484D02*
X9260063Y-11236484D01*
X9260063Y-11236484D02*
X9241015Y-11226960D01*
X9241015Y-11226960D02*
X9231491Y-11217436D01*
X9231491Y-11217436D02*
X9221967Y-11198388D01*
X9221967Y-11198388D02*
X9212444Y-11160293D01*
X9212444Y-11160293D02*
X9212444Y-11112674D01*
X9212444Y-11112674D02*
X9221967Y-11074579D01*
X9221967Y-11074579D02*
X9231491Y-11055531D01*
X9231491Y-11055531D02*
X9241015Y-11046008D01*
X9241015Y-11046008D02*
X9260063Y-11036484D01*
X9450539Y-11036484D02*
X9469586Y-11036484D01*
X9469586Y-11036484D02*
X9488634Y-11046008D01*
X9488634Y-11046008D02*
X9498158Y-11055531D01*
X9498158Y-11055531D02*
X9507682Y-11074579D01*
X9507682Y-11074579D02*
X9517205Y-11112674D01*
X9517205Y-11112674D02*
X9517205Y-11160293D01*
X9517205Y-11160293D02*
X9507682Y-11198388D01*
X9507682Y-11198388D02*
X9498158Y-11217436D01*
X9498158Y-11217436D02*
X9488634Y-11226960D01*
X9488634Y-11226960D02*
X9469586Y-11236484D01*
X9469586Y-11236484D02*
X9450539Y-11236484D01*
X9450539Y-11236484D02*
X9431491Y-11226960D01*
X9431491Y-11226960D02*
X9421967Y-11217436D01*
X9421967Y-11217436D02*
X9412444Y-11198388D01*
X9412444Y-11198388D02*
X9402920Y-11160293D01*
X9402920Y-11160293D02*
X9402920Y-11112674D01*
X9402920Y-11112674D02*
X9412444Y-11074579D01*
X9412444Y-11074579D02*
X9421967Y-11055531D01*
X9421967Y-11055531D02*
X9431491Y-11046008D01*
X9431491Y-11046008D02*
X9450539Y-11036484D01*
X9602920Y-11236484D02*
X9602920Y-11103150D01*
X9602920Y-11122198D02*
X9612444Y-11112674D01*
X9612444Y-11112674D02*
X9631491Y-11103150D01*
X9631491Y-11103150D02*
X9660063Y-11103150D01*
X9660063Y-11103150D02*
X9679110Y-11112674D01*
X9679110Y-11112674D02*
X9688634Y-11131722D01*
X9688634Y-11131722D02*
X9688634Y-11236484D01*
X9688634Y-11131722D02*
X9698158Y-11112674D01*
X9698158Y-11112674D02*
X9717205Y-11103150D01*
X9717205Y-11103150D02*
X9745777Y-11103150D01*
X9745777Y-11103150D02*
X9764825Y-11112674D01*
X9764825Y-11112674D02*
X9774348Y-11131722D01*
X9774348Y-11131722D02*
X9774348Y-11236484D01*
X9869586Y-11236484D02*
X9869586Y-11103150D01*
X9869586Y-11122198D02*
X9879110Y-11112674D01*
X9879110Y-11112674D02*
X9898158Y-11103150D01*
X9898158Y-11103150D02*
X9926729Y-11103150D01*
X9926729Y-11103150D02*
X9945777Y-11112674D01*
X9945777Y-11112674D02*
X9955301Y-11131722D01*
X9955301Y-11131722D02*
X9955301Y-11236484D01*
X9955301Y-11131722D02*
X9964825Y-11112674D01*
X9964825Y-11112674D02*
X9983872Y-11103150D01*
X9983872Y-11103150D02*
X10012444Y-11103150D01*
X10012444Y-11103150D02*
X10031491Y-11112674D01*
X10031491Y-11112674D02*
X10041015Y-11131722D01*
X10041015Y-11131722D02*
X10041015Y-11236484D01*
X10431491Y-11026960D02*
X10260063Y-11284103D01*
X10688634Y-11036484D02*
X10707682Y-11036484D01*
X10707682Y-11036484D02*
X10726729Y-11046008D01*
X10726729Y-11046008D02*
X10736253Y-11055531D01*
X10736253Y-11055531D02*
X10745777Y-11074579D01*
X10745777Y-11074579D02*
X10755301Y-11112674D01*
X10755301Y-11112674D02*
X10755301Y-11160293D01*
X10755301Y-11160293D02*
X10745777Y-11198388D01*
X10745777Y-11198388D02*
X10736253Y-11217436D01*
X10736253Y-11217436D02*
X10726729Y-11226960D01*
X10726729Y-11226960D02*
X10707682Y-11236484D01*
X10707682Y-11236484D02*
X10688634Y-11236484D01*
X10688634Y-11236484D02*
X10669587Y-11226960D01*
X10669587Y-11226960D02*
X10660063Y-11217436D01*
X10660063Y-11217436D02*
X10650539Y-11198388D01*
X10650539Y-11198388D02*
X10641015Y-11160293D01*
X10641015Y-11160293D02*
X10641015Y-11112674D01*
X10641015Y-11112674D02*
X10650539Y-11074579D01*
X10650539Y-11074579D02*
X10660063Y-11055531D01*
X10660063Y-11055531D02*
X10669587Y-11046008D01*
X10669587Y-11046008D02*
X10688634Y-11036484D01*
X10841015Y-11217436D02*
X10850539Y-11226960D01*
X10850539Y-11226960D02*
X10841015Y-11236484D01*
X10841015Y-11236484D02*
X10831491Y-11226960D01*
X10831491Y-11226960D02*
X10841015Y-11217436D01*
X10841015Y-11217436D02*
X10841015Y-11236484D01*
X10974348Y-11036484D02*
X10993396Y-11036484D01*
X10993396Y-11036484D02*
X11012444Y-11046008D01*
X11012444Y-11046008D02*
X11021968Y-11055531D01*
X11021968Y-11055531D02*
X11031491Y-11074579D01*
X11031491Y-11074579D02*
X11041015Y-11112674D01*
X11041015Y-11112674D02*
X11041015Y-11160293D01*
X11041015Y-11160293D02*
X11031491Y-11198388D01*
X11031491Y-11198388D02*
X11021968Y-11217436D01*
X11021968Y-11217436D02*
X11012444Y-11226960D01*
X11012444Y-11226960D02*
X10993396Y-11236484D01*
X10993396Y-11236484D02*
X10974348Y-11236484D01*
X10974348Y-11236484D02*
X10955301Y-11226960D01*
X10955301Y-11226960D02*
X10945777Y-11217436D01*
X10945777Y-11217436D02*
X10936253Y-11198388D01*
X10936253Y-11198388D02*
X10926729Y-11160293D01*
X10926729Y-11160293D02*
X10926729Y-11112674D01*
X10926729Y-11112674D02*
X10936253Y-11074579D01*
X10936253Y-11074579D02*
X10945777Y-11055531D01*
X10945777Y-11055531D02*
X10955301Y-11046008D01*
X10955301Y-11046008D02*
X10974348Y-11036484D01*
X11231491Y-11236484D02*
X11117206Y-11236484D01*
X11174348Y-11236484D02*
X11174348Y-11036484D01*
X11174348Y-11036484D02*
X11155301Y-11065055D01*
X11155301Y-11065055D02*
X11136253Y-11084103D01*
X11136253Y-11084103D02*
X11117206Y-11093627D01*
X11421967Y-11236484D02*
X11307682Y-11236484D01*
X11364825Y-11236484D02*
X11364825Y-11036484D01*
X11364825Y-11036484D02*
X11345777Y-11065055D01*
X11345777Y-11065055D02*
X11326729Y-11084103D01*
X11326729Y-11084103D02*
X11307682Y-11093627D01*
X11536253Y-11122198D02*
X11517206Y-11112674D01*
X11517206Y-11112674D02*
X11507682Y-11103150D01*
X11507682Y-11103150D02*
X11498158Y-11084103D01*
X11498158Y-11084103D02*
X11498158Y-11074579D01*
X11498158Y-11074579D02*
X11507682Y-11055531D01*
X11507682Y-11055531D02*
X11517206Y-11046008D01*
X11517206Y-11046008D02*
X11536253Y-11036484D01*
X11536253Y-11036484D02*
X11574348Y-11036484D01*
X11574348Y-11036484D02*
X11593396Y-11046008D01*
X11593396Y-11046008D02*
X11602920Y-11055531D01*
X11602920Y-11055531D02*
X11612444Y-11074579D01*
X11612444Y-11074579D02*
X11612444Y-11084103D01*
X11612444Y-11084103D02*
X11602920Y-11103150D01*
X11602920Y-11103150D02*
X11593396Y-11112674D01*
X11593396Y-11112674D02*
X11574348Y-11122198D01*
X11574348Y-11122198D02*
X11536253Y-11122198D01*
X11536253Y-11122198D02*
X11517206Y-11131722D01*
X11517206Y-11131722D02*
X11507682Y-11141246D01*
X11507682Y-11141246D02*
X11498158Y-11160293D01*
X11498158Y-11160293D02*
X11498158Y-11198388D01*
X11498158Y-11198388D02*
X11507682Y-11217436D01*
X11507682Y-11217436D02*
X11517206Y-11226960D01*
X11517206Y-11226960D02*
X11536253Y-11236484D01*
X11536253Y-11236484D02*
X11574348Y-11236484D01*
X11574348Y-11236484D02*
X11593396Y-11226960D01*
X11593396Y-11226960D02*
X11602920Y-11217436D01*
X11602920Y-11217436D02*
X11612444Y-11198388D01*
X11612444Y-11198388D02*
X11612444Y-11160293D01*
X11612444Y-11160293D02*
X11602920Y-11141246D01*
X11602920Y-11141246D02*
X11593396Y-11131722D01*
X11593396Y-11131722D02*
X11574348Y-11122198D01*
X11688634Y-11036484D02*
X11688634Y-11074579D01*
X11764825Y-11036484D02*
X11764825Y-11074579D01*
X12060063Y-11312674D02*
X12050539Y-11303150D01*
X12050539Y-11303150D02*
X12031491Y-11274579D01*
X12031491Y-11274579D02*
X12021968Y-11255531D01*
X12021968Y-11255531D02*
X12012444Y-11226960D01*
X12012444Y-11226960D02*
X12002920Y-11179341D01*
X12002920Y-11179341D02*
X12002920Y-11141246D01*
X12002920Y-11141246D02*
X12012444Y-11093627D01*
X12012444Y-11093627D02*
X12021968Y-11065055D01*
X12021968Y-11065055D02*
X12031491Y-11046008D01*
X12031491Y-11046008D02*
X12050539Y-11017436D01*
X12050539Y-11017436D02*
X12060063Y-11007912D01*
X12145777Y-11236484D02*
X12183872Y-11236484D01*
X12183872Y-11236484D02*
X12202920Y-11226960D01*
X12202920Y-11226960D02*
X12212444Y-11217436D01*
X12212444Y-11217436D02*
X12231491Y-11188865D01*
X12231491Y-11188865D02*
X12241015Y-11150770D01*
X12241015Y-11150770D02*
X12241015Y-11074579D01*
X12241015Y-11074579D02*
X12231491Y-11055531D01*
X12231491Y-11055531D02*
X12221968Y-11046008D01*
X12221968Y-11046008D02*
X12202920Y-11036484D01*
X12202920Y-11036484D02*
X12164825Y-11036484D01*
X12164825Y-11036484D02*
X12145777Y-11046008D01*
X12145777Y-11046008D02*
X12136253Y-11055531D01*
X12136253Y-11055531D02*
X12126729Y-11074579D01*
X12126729Y-11074579D02*
X12126729Y-11122198D01*
X12126729Y-11122198D02*
X12136253Y-11141246D01*
X12136253Y-11141246D02*
X12145777Y-11150770D01*
X12145777Y-11150770D02*
X12164825Y-11160293D01*
X12164825Y-11160293D02*
X12202920Y-11160293D01*
X12202920Y-11160293D02*
X12221968Y-11150770D01*
X12221968Y-11150770D02*
X12231491Y-11141246D01*
X12231491Y-11141246D02*
X12241015Y-11122198D01*
X12431491Y-11236484D02*
X12317206Y-11236484D01*
X12374348Y-11236484D02*
X12374348Y-11036484D01*
X12374348Y-11036484D02*
X12355301Y-11065055D01*
X12355301Y-11065055D02*
X12336253Y-11084103D01*
X12336253Y-11084103D02*
X12317206Y-11093627D01*
X12669587Y-11236484D02*
X12669587Y-11036484D01*
X12755301Y-11236484D02*
X12755301Y-11131722D01*
X12755301Y-11131722D02*
X12745777Y-11112674D01*
X12745777Y-11112674D02*
X12726730Y-11103150D01*
X12726730Y-11103150D02*
X12698158Y-11103150D01*
X12698158Y-11103150D02*
X12679110Y-11112674D01*
X12679110Y-11112674D02*
X12669587Y-11122198D01*
X12879110Y-11236484D02*
X12860063Y-11226960D01*
X12860063Y-11226960D02*
X12850539Y-11217436D01*
X12850539Y-11217436D02*
X12841015Y-11198388D01*
X12841015Y-11198388D02*
X12841015Y-11141246D01*
X12841015Y-11141246D02*
X12850539Y-11122198D01*
X12850539Y-11122198D02*
X12860063Y-11112674D01*
X12860063Y-11112674D02*
X12879110Y-11103150D01*
X12879110Y-11103150D02*
X12907682Y-11103150D01*
X12907682Y-11103150D02*
X12926730Y-11112674D01*
X12926730Y-11112674D02*
X12936253Y-11122198D01*
X12936253Y-11122198D02*
X12945777Y-11141246D01*
X12945777Y-11141246D02*
X12945777Y-11198388D01*
X12945777Y-11198388D02*
X12936253Y-11217436D01*
X12936253Y-11217436D02*
X12926730Y-11226960D01*
X12926730Y-11226960D02*
X12907682Y-11236484D01*
X12907682Y-11236484D02*
X12879110Y-11236484D01*
X13060063Y-11236484D02*
X13041015Y-11226960D01*
X13041015Y-11226960D02*
X13031491Y-11207912D01*
X13031491Y-11207912D02*
X13031491Y-11036484D01*
X13212444Y-11226960D02*
X13193396Y-11236484D01*
X13193396Y-11236484D02*
X13155301Y-11236484D01*
X13155301Y-11236484D02*
X13136253Y-11226960D01*
X13136253Y-11226960D02*
X13126730Y-11207912D01*
X13126730Y-11207912D02*
X13126730Y-11131722D01*
X13126730Y-11131722D02*
X13136253Y-11112674D01*
X13136253Y-11112674D02*
X13155301Y-11103150D01*
X13155301Y-11103150D02*
X13193396Y-11103150D01*
X13193396Y-11103150D02*
X13212444Y-11112674D01*
X13212444Y-11112674D02*
X13221968Y-11131722D01*
X13221968Y-11131722D02*
X13221968Y-11150770D01*
X13221968Y-11150770D02*
X13126730Y-11169817D01*
X13298158Y-11226960D02*
X13317206Y-11236484D01*
X13317206Y-11236484D02*
X13355301Y-11236484D01*
X13355301Y-11236484D02*
X13374349Y-11226960D01*
X13374349Y-11226960D02*
X13383872Y-11207912D01*
X13383872Y-11207912D02*
X13383872Y-11198388D01*
X13383872Y-11198388D02*
X13374349Y-11179341D01*
X13374349Y-11179341D02*
X13355301Y-11169817D01*
X13355301Y-11169817D02*
X13326730Y-11169817D01*
X13326730Y-11169817D02*
X13307682Y-11160293D01*
X13307682Y-11160293D02*
X13298158Y-11141246D01*
X13298158Y-11141246D02*
X13298158Y-11131722D01*
X13298158Y-11131722D02*
X13307682Y-11112674D01*
X13307682Y-11112674D02*
X13326730Y-11103150D01*
X13326730Y-11103150D02*
X13355301Y-11103150D01*
X13355301Y-11103150D02*
X13374349Y-11112674D01*
X13450539Y-11312674D02*
X13460063Y-11303150D01*
X13460063Y-11303150D02*
X13479111Y-11274579D01*
X13479111Y-11274579D02*
X13488634Y-11255531D01*
X13488634Y-11255531D02*
X13498158Y-11226960D01*
X13498158Y-11226960D02*
X13507682Y-11179341D01*
X13507682Y-11179341D02*
X13507682Y-11141246D01*
X13507682Y-11141246D02*
X13498158Y-11093627D01*
X13498158Y-11093627D02*
X13488634Y-11065055D01*
X13488634Y-11065055D02*
X13479111Y-11046008D01*
X13479111Y-11046008D02*
X13460063Y-11017436D01*
X13460063Y-11017436D02*
X13450539Y-11007912D01*
D10*
X8485000Y-11409000D02*
G75*
G03*
X8425000Y-11409000I-30000J0D01*
G01*
X8425000Y-11409000D02*
G75*
G03*
X8485000Y-11409000I30000J0D01*
G01*
D11*
X8783872Y-11300484D02*
X8802920Y-11300484D01*
X8802920Y-11300484D02*
X8821967Y-11310008D01*
X8821967Y-11310008D02*
X8831491Y-11319531D01*
X8831491Y-11319531D02*
X8841015Y-11338579D01*
X8841015Y-11338579D02*
X8850539Y-11376674D01*
X8850539Y-11376674D02*
X8850539Y-11424293D01*
X8850539Y-11424293D02*
X8841015Y-11462388D01*
X8841015Y-11462388D02*
X8831491Y-11481436D01*
X8831491Y-11481436D02*
X8821967Y-11490960D01*
X8821967Y-11490960D02*
X8802920Y-11500484D01*
X8802920Y-11500484D02*
X8783872Y-11500484D01*
X8783872Y-11500484D02*
X8764824Y-11490960D01*
X8764824Y-11490960D02*
X8755301Y-11481436D01*
X8755301Y-11481436D02*
X8745777Y-11462388D01*
X8745777Y-11462388D02*
X8736253Y-11424293D01*
X8736253Y-11424293D02*
X8736253Y-11376674D01*
X8736253Y-11376674D02*
X8745777Y-11338579D01*
X8745777Y-11338579D02*
X8755301Y-11319531D01*
X8755301Y-11319531D02*
X8764824Y-11310008D01*
X8764824Y-11310008D02*
X8783872Y-11300484D01*
X8936253Y-11481436D02*
X8945777Y-11490960D01*
X8945777Y-11490960D02*
X8936253Y-11500484D01*
X8936253Y-11500484D02*
X8926729Y-11490960D01*
X8926729Y-11490960D02*
X8936253Y-11481436D01*
X8936253Y-11481436D02*
X8936253Y-11500484D01*
X9117205Y-11300484D02*
X9079110Y-11300484D01*
X9079110Y-11300484D02*
X9060063Y-11310008D01*
X9060063Y-11310008D02*
X9050539Y-11319531D01*
X9050539Y-11319531D02*
X9031491Y-11348103D01*
X9031491Y-11348103D02*
X9021967Y-11386198D01*
X9021967Y-11386198D02*
X9021967Y-11462388D01*
X9021967Y-11462388D02*
X9031491Y-11481436D01*
X9031491Y-11481436D02*
X9041015Y-11490960D01*
X9041015Y-11490960D02*
X9060063Y-11500484D01*
X9060063Y-11500484D02*
X9098158Y-11500484D01*
X9098158Y-11500484D02*
X9117205Y-11490960D01*
X9117205Y-11490960D02*
X9126729Y-11481436D01*
X9126729Y-11481436D02*
X9136253Y-11462388D01*
X9136253Y-11462388D02*
X9136253Y-11414769D01*
X9136253Y-11414769D02*
X9126729Y-11395722D01*
X9126729Y-11395722D02*
X9117205Y-11386198D01*
X9117205Y-11386198D02*
X9098158Y-11376674D01*
X9098158Y-11376674D02*
X9060063Y-11376674D01*
X9060063Y-11376674D02*
X9041015Y-11386198D01*
X9041015Y-11386198D02*
X9031491Y-11395722D01*
X9031491Y-11395722D02*
X9021967Y-11414769D01*
X9260063Y-11300484D02*
X9279110Y-11300484D01*
X9279110Y-11300484D02*
X9298158Y-11310008D01*
X9298158Y-11310008D02*
X9307682Y-11319531D01*
X9307682Y-11319531D02*
X9317205Y-11338579D01*
X9317205Y-11338579D02*
X9326729Y-11376674D01*
X9326729Y-11376674D02*
X9326729Y-11424293D01*
X9326729Y-11424293D02*
X9317205Y-11462388D01*
X9317205Y-11462388D02*
X9307682Y-11481436D01*
X9307682Y-11481436D02*
X9298158Y-11490960D01*
X9298158Y-11490960D02*
X9279110Y-11500484D01*
X9279110Y-11500484D02*
X9260063Y-11500484D01*
X9260063Y-11500484D02*
X9241015Y-11490960D01*
X9241015Y-11490960D02*
X9231491Y-11481436D01*
X9231491Y-11481436D02*
X9221967Y-11462388D01*
X9221967Y-11462388D02*
X9212444Y-11424293D01*
X9212444Y-11424293D02*
X9212444Y-11376674D01*
X9212444Y-11376674D02*
X9221967Y-11338579D01*
X9221967Y-11338579D02*
X9231491Y-11319531D01*
X9231491Y-11319531D02*
X9241015Y-11310008D01*
X9241015Y-11310008D02*
X9260063Y-11300484D01*
X9450539Y-11300484D02*
X9469586Y-11300484D01*
X9469586Y-11300484D02*
X9488634Y-11310008D01*
X9488634Y-11310008D02*
X9498158Y-11319531D01*
X9498158Y-11319531D02*
X9507682Y-11338579D01*
X9507682Y-11338579D02*
X9517205Y-11376674D01*
X9517205Y-11376674D02*
X9517205Y-11424293D01*
X9517205Y-11424293D02*
X9507682Y-11462388D01*
X9507682Y-11462388D02*
X9498158Y-11481436D01*
X9498158Y-11481436D02*
X9488634Y-11490960D01*
X9488634Y-11490960D02*
X9469586Y-11500484D01*
X9469586Y-11500484D02*
X9450539Y-11500484D01*
X9450539Y-11500484D02*
X9431491Y-11490960D01*
X9431491Y-11490960D02*
X9421967Y-11481436D01*
X9421967Y-11481436D02*
X9412444Y-11462388D01*
X9412444Y-11462388D02*
X9402920Y-11424293D01*
X9402920Y-11424293D02*
X9402920Y-11376674D01*
X9402920Y-11376674D02*
X9412444Y-11338579D01*
X9412444Y-11338579D02*
X9421967Y-11319531D01*
X9421967Y-11319531D02*
X9431491Y-11310008D01*
X9431491Y-11310008D02*
X9450539Y-11300484D01*
X9602920Y-11500484D02*
X9602920Y-11367150D01*
X9602920Y-11386198D02*
X9612444Y-11376674D01*
X9612444Y-11376674D02*
X9631491Y-11367150D01*
X9631491Y-11367150D02*
X9660063Y-11367150D01*
X9660063Y-11367150D02*
X9679110Y-11376674D01*
X9679110Y-11376674D02*
X9688634Y-11395722D01*
X9688634Y-11395722D02*
X9688634Y-11500484D01*
X9688634Y-11395722D02*
X9698158Y-11376674D01*
X9698158Y-11376674D02*
X9717205Y-11367150D01*
X9717205Y-11367150D02*
X9745777Y-11367150D01*
X9745777Y-11367150D02*
X9764825Y-11376674D01*
X9764825Y-11376674D02*
X9774348Y-11395722D01*
X9774348Y-11395722D02*
X9774348Y-11500484D01*
X9869586Y-11500484D02*
X9869586Y-11367150D01*
X9869586Y-11386198D02*
X9879110Y-11376674D01*
X9879110Y-11376674D02*
X9898158Y-11367150D01*
X9898158Y-11367150D02*
X9926729Y-11367150D01*
X9926729Y-11367150D02*
X9945777Y-11376674D01*
X9945777Y-11376674D02*
X9955301Y-11395722D01*
X9955301Y-11395722D02*
X9955301Y-11500484D01*
X9955301Y-11395722D02*
X9964825Y-11376674D01*
X9964825Y-11376674D02*
X9983872Y-11367150D01*
X9983872Y-11367150D02*
X10012444Y-11367150D01*
X10012444Y-11367150D02*
X10031491Y-11376674D01*
X10031491Y-11376674D02*
X10041015Y-11395722D01*
X10041015Y-11395722D02*
X10041015Y-11500484D01*
X10431491Y-11290960D02*
X10260063Y-11548103D01*
X10688634Y-11300484D02*
X10707682Y-11300484D01*
X10707682Y-11300484D02*
X10726729Y-11310008D01*
X10726729Y-11310008D02*
X10736253Y-11319531D01*
X10736253Y-11319531D02*
X10745777Y-11338579D01*
X10745777Y-11338579D02*
X10755301Y-11376674D01*
X10755301Y-11376674D02*
X10755301Y-11424293D01*
X10755301Y-11424293D02*
X10745777Y-11462388D01*
X10745777Y-11462388D02*
X10736253Y-11481436D01*
X10736253Y-11481436D02*
X10726729Y-11490960D01*
X10726729Y-11490960D02*
X10707682Y-11500484D01*
X10707682Y-11500484D02*
X10688634Y-11500484D01*
X10688634Y-11500484D02*
X10669587Y-11490960D01*
X10669587Y-11490960D02*
X10660063Y-11481436D01*
X10660063Y-11481436D02*
X10650539Y-11462388D01*
X10650539Y-11462388D02*
X10641015Y-11424293D01*
X10641015Y-11424293D02*
X10641015Y-11376674D01*
X10641015Y-11376674D02*
X10650539Y-11338579D01*
X10650539Y-11338579D02*
X10660063Y-11319531D01*
X10660063Y-11319531D02*
X10669587Y-11310008D01*
X10669587Y-11310008D02*
X10688634Y-11300484D01*
X10841015Y-11481436D02*
X10850539Y-11490960D01*
X10850539Y-11490960D02*
X10841015Y-11500484D01*
X10841015Y-11500484D02*
X10831491Y-11490960D01*
X10831491Y-11490960D02*
X10841015Y-11481436D01*
X10841015Y-11481436D02*
X10841015Y-11500484D01*
X10974348Y-11300484D02*
X10993396Y-11300484D01*
X10993396Y-11300484D02*
X11012444Y-11310008D01*
X11012444Y-11310008D02*
X11021968Y-11319531D01*
X11021968Y-11319531D02*
X11031491Y-11338579D01*
X11031491Y-11338579D02*
X11041015Y-11376674D01*
X11041015Y-11376674D02*
X11041015Y-11424293D01*
X11041015Y-11424293D02*
X11031491Y-11462388D01*
X11031491Y-11462388D02*
X11021968Y-11481436D01*
X11021968Y-11481436D02*
X11012444Y-11490960D01*
X11012444Y-11490960D02*
X10993396Y-11500484D01*
X10993396Y-11500484D02*
X10974348Y-11500484D01*
X10974348Y-11500484D02*
X10955301Y-11490960D01*
X10955301Y-11490960D02*
X10945777Y-11481436D01*
X10945777Y-11481436D02*
X10936253Y-11462388D01*
X10936253Y-11462388D02*
X10926729Y-11424293D01*
X10926729Y-11424293D02*
X10926729Y-11376674D01*
X10926729Y-11376674D02*
X10936253Y-11338579D01*
X10936253Y-11338579D02*
X10945777Y-11319531D01*
X10945777Y-11319531D02*
X10955301Y-11310008D01*
X10955301Y-11310008D02*
X10974348Y-11300484D01*
X11117206Y-11319531D02*
X11126729Y-11310008D01*
X11126729Y-11310008D02*
X11145777Y-11300484D01*
X11145777Y-11300484D02*
X11193396Y-11300484D01*
X11193396Y-11300484D02*
X11212444Y-11310008D01*
X11212444Y-11310008D02*
X11221967Y-11319531D01*
X11221967Y-11319531D02*
X11231491Y-11338579D01*
X11231491Y-11338579D02*
X11231491Y-11357627D01*
X11231491Y-11357627D02*
X11221967Y-11386198D01*
X11221967Y-11386198D02*
X11107682Y-11500484D01*
X11107682Y-11500484D02*
X11231491Y-11500484D01*
X11298158Y-11300484D02*
X11421967Y-11300484D01*
X11421967Y-11300484D02*
X11355301Y-11376674D01*
X11355301Y-11376674D02*
X11383872Y-11376674D01*
X11383872Y-11376674D02*
X11402920Y-11386198D01*
X11402920Y-11386198D02*
X11412444Y-11395722D01*
X11412444Y-11395722D02*
X11421967Y-11414769D01*
X11421967Y-11414769D02*
X11421967Y-11462388D01*
X11421967Y-11462388D02*
X11412444Y-11481436D01*
X11412444Y-11481436D02*
X11402920Y-11490960D01*
X11402920Y-11490960D02*
X11383872Y-11500484D01*
X11383872Y-11500484D02*
X11326729Y-11500484D01*
X11326729Y-11500484D02*
X11307682Y-11490960D01*
X11307682Y-11490960D02*
X11298158Y-11481436D01*
X11593396Y-11300484D02*
X11555301Y-11300484D01*
X11555301Y-11300484D02*
X11536253Y-11310008D01*
X11536253Y-11310008D02*
X11526729Y-11319531D01*
X11526729Y-11319531D02*
X11507682Y-11348103D01*
X11507682Y-11348103D02*
X11498158Y-11386198D01*
X11498158Y-11386198D02*
X11498158Y-11462388D01*
X11498158Y-11462388D02*
X11507682Y-11481436D01*
X11507682Y-11481436D02*
X11517206Y-11490960D01*
X11517206Y-11490960D02*
X11536253Y-11500484D01*
X11536253Y-11500484D02*
X11574348Y-11500484D01*
X11574348Y-11500484D02*
X11593396Y-11490960D01*
X11593396Y-11490960D02*
X11602920Y-11481436D01*
X11602920Y-11481436D02*
X11612444Y-11462388D01*
X11612444Y-11462388D02*
X11612444Y-11414769D01*
X11612444Y-11414769D02*
X11602920Y-11395722D01*
X11602920Y-11395722D02*
X11593396Y-11386198D01*
X11593396Y-11386198D02*
X11574348Y-11376674D01*
X11574348Y-11376674D02*
X11536253Y-11376674D01*
X11536253Y-11376674D02*
X11517206Y-11386198D01*
X11517206Y-11386198D02*
X11507682Y-11395722D01*
X11507682Y-11395722D02*
X11498158Y-11414769D01*
X11688634Y-11300484D02*
X11688634Y-11338579D01*
X11764825Y-11300484D02*
X11764825Y-11338579D01*
X12060063Y-11576674D02*
X12050539Y-11567150D01*
X12050539Y-11567150D02*
X12031491Y-11538579D01*
X12031491Y-11538579D02*
X12021968Y-11519531D01*
X12021968Y-11519531D02*
X12012444Y-11490960D01*
X12012444Y-11490960D02*
X12002920Y-11443341D01*
X12002920Y-11443341D02*
X12002920Y-11405246D01*
X12002920Y-11405246D02*
X12012444Y-11357627D01*
X12012444Y-11357627D02*
X12021968Y-11329055D01*
X12021968Y-11329055D02*
X12031491Y-11310008D01*
X12031491Y-11310008D02*
X12050539Y-11281436D01*
X12050539Y-11281436D02*
X12060063Y-11271912D01*
X12174348Y-11300484D02*
X12193396Y-11300484D01*
X12193396Y-11300484D02*
X12212444Y-11310008D01*
X12212444Y-11310008D02*
X12221968Y-11319531D01*
X12221968Y-11319531D02*
X12231491Y-11338579D01*
X12231491Y-11338579D02*
X12241015Y-11376674D01*
X12241015Y-11376674D02*
X12241015Y-11424293D01*
X12241015Y-11424293D02*
X12231491Y-11462388D01*
X12231491Y-11462388D02*
X12221968Y-11481436D01*
X12221968Y-11481436D02*
X12212444Y-11490960D01*
X12212444Y-11490960D02*
X12193396Y-11500484D01*
X12193396Y-11500484D02*
X12174348Y-11500484D01*
X12174348Y-11500484D02*
X12155301Y-11490960D01*
X12155301Y-11490960D02*
X12145777Y-11481436D01*
X12145777Y-11481436D02*
X12136253Y-11462388D01*
X12136253Y-11462388D02*
X12126729Y-11424293D01*
X12126729Y-11424293D02*
X12126729Y-11376674D01*
X12126729Y-11376674D02*
X12136253Y-11338579D01*
X12136253Y-11338579D02*
X12145777Y-11319531D01*
X12145777Y-11319531D02*
X12155301Y-11310008D01*
X12155301Y-11310008D02*
X12174348Y-11300484D01*
X12479110Y-11500484D02*
X12479110Y-11300484D01*
X12564825Y-11500484D02*
X12564825Y-11395722D01*
X12564825Y-11395722D02*
X12555301Y-11376674D01*
X12555301Y-11376674D02*
X12536253Y-11367150D01*
X12536253Y-11367150D02*
X12507682Y-11367150D01*
X12507682Y-11367150D02*
X12488634Y-11376674D01*
X12488634Y-11376674D02*
X12479110Y-11386198D01*
X12688634Y-11500484D02*
X12669587Y-11490960D01*
X12669587Y-11490960D02*
X12660063Y-11481436D01*
X12660063Y-11481436D02*
X12650539Y-11462388D01*
X12650539Y-11462388D02*
X12650539Y-11405246D01*
X12650539Y-11405246D02*
X12660063Y-11386198D01*
X12660063Y-11386198D02*
X12669587Y-11376674D01*
X12669587Y-11376674D02*
X12688634Y-11367150D01*
X12688634Y-11367150D02*
X12717206Y-11367150D01*
X12717206Y-11367150D02*
X12736253Y-11376674D01*
X12736253Y-11376674D02*
X12745777Y-11386198D01*
X12745777Y-11386198D02*
X12755301Y-11405246D01*
X12755301Y-11405246D02*
X12755301Y-11462388D01*
X12755301Y-11462388D02*
X12745777Y-11481436D01*
X12745777Y-11481436D02*
X12736253Y-11490960D01*
X12736253Y-11490960D02*
X12717206Y-11500484D01*
X12717206Y-11500484D02*
X12688634Y-11500484D01*
X12869587Y-11500484D02*
X12850539Y-11490960D01*
X12850539Y-11490960D02*
X12841015Y-11471912D01*
X12841015Y-11471912D02*
X12841015Y-11300484D01*
X13021968Y-11490960D02*
X13002920Y-11500484D01*
X13002920Y-11500484D02*
X12964825Y-11500484D01*
X12964825Y-11500484D02*
X12945777Y-11490960D01*
X12945777Y-11490960D02*
X12936253Y-11471912D01*
X12936253Y-11471912D02*
X12936253Y-11395722D01*
X12936253Y-11395722D02*
X12945777Y-11376674D01*
X12945777Y-11376674D02*
X12964825Y-11367150D01*
X12964825Y-11367150D02*
X13002920Y-11367150D01*
X13002920Y-11367150D02*
X13021968Y-11376674D01*
X13021968Y-11376674D02*
X13031491Y-11395722D01*
X13031491Y-11395722D02*
X13031491Y-11414769D01*
X13031491Y-11414769D02*
X12936253Y-11433817D01*
X13107682Y-11490960D02*
X13126730Y-11500484D01*
X13126730Y-11500484D02*
X13164825Y-11500484D01*
X13164825Y-11500484D02*
X13183872Y-11490960D01*
X13183872Y-11490960D02*
X13193396Y-11471912D01*
X13193396Y-11471912D02*
X13193396Y-11462388D01*
X13193396Y-11462388D02*
X13183872Y-11443341D01*
X13183872Y-11443341D02*
X13164825Y-11433817D01*
X13164825Y-11433817D02*
X13136253Y-11433817D01*
X13136253Y-11433817D02*
X13117206Y-11424293D01*
X13117206Y-11424293D02*
X13107682Y-11405246D01*
X13107682Y-11405246D02*
X13107682Y-11395722D01*
X13107682Y-11395722D02*
X13117206Y-11376674D01*
X13117206Y-11376674D02*
X13136253Y-11367150D01*
X13136253Y-11367150D02*
X13164825Y-11367150D01*
X13164825Y-11367150D02*
X13183872Y-11376674D01*
X13431492Y-11424293D02*
X13583873Y-11424293D01*
X13507682Y-11500484D02*
X13507682Y-11348103D01*
X13821968Y-11319531D02*
X13831492Y-11310008D01*
X13831492Y-11310008D02*
X13850539Y-11300484D01*
X13850539Y-11300484D02*
X13898158Y-11300484D01*
X13898158Y-11300484D02*
X13917206Y-11310008D01*
X13917206Y-11310008D02*
X13926730Y-11319531D01*
X13926730Y-11319531D02*
X13936253Y-11338579D01*
X13936253Y-11338579D02*
X13936253Y-11357627D01*
X13936253Y-11357627D02*
X13926730Y-11386198D01*
X13926730Y-11386198D02*
X13812444Y-11500484D01*
X13812444Y-11500484D02*
X13936253Y-11500484D01*
X14164825Y-11490960D02*
X14183873Y-11500484D01*
X14183873Y-11500484D02*
X14221968Y-11500484D01*
X14221968Y-11500484D02*
X14241015Y-11490960D01*
X14241015Y-11490960D02*
X14250539Y-11471912D01*
X14250539Y-11471912D02*
X14250539Y-11462388D01*
X14250539Y-11462388D02*
X14241015Y-11443341D01*
X14241015Y-11443341D02*
X14221968Y-11433817D01*
X14221968Y-11433817D02*
X14193396Y-11433817D01*
X14193396Y-11433817D02*
X14174349Y-11424293D01*
X14174349Y-11424293D02*
X14164825Y-11405246D01*
X14164825Y-11405246D02*
X14164825Y-11395722D01*
X14164825Y-11395722D02*
X14174349Y-11376674D01*
X14174349Y-11376674D02*
X14193396Y-11367150D01*
X14193396Y-11367150D02*
X14221968Y-11367150D01*
X14221968Y-11367150D02*
X14241015Y-11376674D01*
X14364825Y-11500484D02*
X14345777Y-11490960D01*
X14345777Y-11490960D02*
X14336254Y-11471912D01*
X14336254Y-11471912D02*
X14336254Y-11300484D01*
X14469587Y-11500484D02*
X14450539Y-11490960D01*
X14450539Y-11490960D02*
X14441015Y-11481436D01*
X14441015Y-11481436D02*
X14431492Y-11462388D01*
X14431492Y-11462388D02*
X14431492Y-11405246D01*
X14431492Y-11405246D02*
X14441015Y-11386198D01*
X14441015Y-11386198D02*
X14450539Y-11376674D01*
X14450539Y-11376674D02*
X14469587Y-11367150D01*
X14469587Y-11367150D02*
X14498158Y-11367150D01*
X14498158Y-11367150D02*
X14517206Y-11376674D01*
X14517206Y-11376674D02*
X14526730Y-11386198D01*
X14526730Y-11386198D02*
X14536254Y-11405246D01*
X14536254Y-11405246D02*
X14536254Y-11462388D01*
X14536254Y-11462388D02*
X14526730Y-11481436D01*
X14526730Y-11481436D02*
X14517206Y-11490960D01*
X14517206Y-11490960D02*
X14498158Y-11500484D01*
X14498158Y-11500484D02*
X14469587Y-11500484D01*
X14593396Y-11367150D02*
X14669587Y-11367150D01*
X14621968Y-11300484D02*
X14621968Y-11471912D01*
X14621968Y-11471912D02*
X14631492Y-11490960D01*
X14631492Y-11490960D02*
X14650539Y-11500484D01*
X14650539Y-11500484D02*
X14669587Y-11500484D01*
X14726730Y-11490960D02*
X14745777Y-11500484D01*
X14745777Y-11500484D02*
X14783873Y-11500484D01*
X14783873Y-11500484D02*
X14802920Y-11490960D01*
X14802920Y-11490960D02*
X14812444Y-11471912D01*
X14812444Y-11471912D02*
X14812444Y-11462388D01*
X14812444Y-11462388D02*
X14802920Y-11443341D01*
X14802920Y-11443341D02*
X14783873Y-11433817D01*
X14783873Y-11433817D02*
X14755301Y-11433817D01*
X14755301Y-11433817D02*
X14736254Y-11424293D01*
X14736254Y-11424293D02*
X14726730Y-11405246D01*
X14726730Y-11405246D02*
X14726730Y-11395722D01*
X14726730Y-11395722D02*
X14736254Y-11376674D01*
X14736254Y-11376674D02*
X14755301Y-11367150D01*
X14755301Y-11367150D02*
X14783873Y-11367150D01*
X14783873Y-11367150D02*
X14802920Y-11376674D01*
X14879111Y-11576674D02*
X14888635Y-11567150D01*
X14888635Y-11567150D02*
X14907682Y-11538579D01*
X14907682Y-11538579D02*
X14917206Y-11519531D01*
X14917206Y-11519531D02*
X14926730Y-11490960D01*
X14926730Y-11490960D02*
X14936254Y-11443341D01*
X14936254Y-11443341D02*
X14936254Y-11405246D01*
X14936254Y-11405246D02*
X14926730Y-11357627D01*
X14926730Y-11357627D02*
X14917206Y-11329055D01*
X14917206Y-11329055D02*
X14907682Y-11310008D01*
X14907682Y-11310008D02*
X14888635Y-11281436D01*
X14888635Y-11281436D02*
X14879111Y-11271912D01*
D10*
X8450000Y-11638000D02*
X8450000Y-11708000D01*
X8415000Y-11673000D02*
X8485000Y-11673000D01*
D11*
X8783872Y-11564484D02*
X8802920Y-11564484D01*
X8802920Y-11564484D02*
X8821967Y-11574008D01*
X8821967Y-11574008D02*
X8831491Y-11583531D01*
X8831491Y-11583531D02*
X8841015Y-11602579D01*
X8841015Y-11602579D02*
X8850539Y-11640674D01*
X8850539Y-11640674D02*
X8850539Y-11688293D01*
X8850539Y-11688293D02*
X8841015Y-11726388D01*
X8841015Y-11726388D02*
X8831491Y-11745436D01*
X8831491Y-11745436D02*
X8821967Y-11754960D01*
X8821967Y-11754960D02*
X8802920Y-11764484D01*
X8802920Y-11764484D02*
X8783872Y-11764484D01*
X8783872Y-11764484D02*
X8764824Y-11754960D01*
X8764824Y-11754960D02*
X8755301Y-11745436D01*
X8755301Y-11745436D02*
X8745777Y-11726388D01*
X8745777Y-11726388D02*
X8736253Y-11688293D01*
X8736253Y-11688293D02*
X8736253Y-11640674D01*
X8736253Y-11640674D02*
X8745777Y-11602579D01*
X8745777Y-11602579D02*
X8755301Y-11583531D01*
X8755301Y-11583531D02*
X8764824Y-11574008D01*
X8764824Y-11574008D02*
X8783872Y-11564484D01*
X8936253Y-11745436D02*
X8945777Y-11754960D01*
X8945777Y-11754960D02*
X8936253Y-11764484D01*
X8936253Y-11764484D02*
X8926729Y-11754960D01*
X8926729Y-11754960D02*
X8936253Y-11745436D01*
X8936253Y-11745436D02*
X8936253Y-11764484D01*
X9012444Y-11564484D02*
X9145777Y-11564484D01*
X9145777Y-11564484D02*
X9060063Y-11764484D01*
X9260063Y-11564484D02*
X9279110Y-11564484D01*
X9279110Y-11564484D02*
X9298158Y-11574008D01*
X9298158Y-11574008D02*
X9307682Y-11583531D01*
X9307682Y-11583531D02*
X9317205Y-11602579D01*
X9317205Y-11602579D02*
X9326729Y-11640674D01*
X9326729Y-11640674D02*
X9326729Y-11688293D01*
X9326729Y-11688293D02*
X9317205Y-11726388D01*
X9317205Y-11726388D02*
X9307682Y-11745436D01*
X9307682Y-11745436D02*
X9298158Y-11754960D01*
X9298158Y-11754960D02*
X9279110Y-11764484D01*
X9279110Y-11764484D02*
X9260063Y-11764484D01*
X9260063Y-11764484D02*
X9241015Y-11754960D01*
X9241015Y-11754960D02*
X9231491Y-11745436D01*
X9231491Y-11745436D02*
X9221967Y-11726388D01*
X9221967Y-11726388D02*
X9212444Y-11688293D01*
X9212444Y-11688293D02*
X9212444Y-11640674D01*
X9212444Y-11640674D02*
X9221967Y-11602579D01*
X9221967Y-11602579D02*
X9231491Y-11583531D01*
X9231491Y-11583531D02*
X9241015Y-11574008D01*
X9241015Y-11574008D02*
X9260063Y-11564484D01*
X9450539Y-11564484D02*
X9469586Y-11564484D01*
X9469586Y-11564484D02*
X9488634Y-11574008D01*
X9488634Y-11574008D02*
X9498158Y-11583531D01*
X9498158Y-11583531D02*
X9507682Y-11602579D01*
X9507682Y-11602579D02*
X9517205Y-11640674D01*
X9517205Y-11640674D02*
X9517205Y-11688293D01*
X9517205Y-11688293D02*
X9507682Y-11726388D01*
X9507682Y-11726388D02*
X9498158Y-11745436D01*
X9498158Y-11745436D02*
X9488634Y-11754960D01*
X9488634Y-11754960D02*
X9469586Y-11764484D01*
X9469586Y-11764484D02*
X9450539Y-11764484D01*
X9450539Y-11764484D02*
X9431491Y-11754960D01*
X9431491Y-11754960D02*
X9421967Y-11745436D01*
X9421967Y-11745436D02*
X9412444Y-11726388D01*
X9412444Y-11726388D02*
X9402920Y-11688293D01*
X9402920Y-11688293D02*
X9402920Y-11640674D01*
X9402920Y-11640674D02*
X9412444Y-11602579D01*
X9412444Y-11602579D02*
X9421967Y-11583531D01*
X9421967Y-11583531D02*
X9431491Y-11574008D01*
X9431491Y-11574008D02*
X9450539Y-11564484D01*
X9602920Y-11764484D02*
X9602920Y-11631150D01*
X9602920Y-11650198D02*
X9612444Y-11640674D01*
X9612444Y-11640674D02*
X9631491Y-11631150D01*
X9631491Y-11631150D02*
X9660063Y-11631150D01*
X9660063Y-11631150D02*
X9679110Y-11640674D01*
X9679110Y-11640674D02*
X9688634Y-11659722D01*
X9688634Y-11659722D02*
X9688634Y-11764484D01*
X9688634Y-11659722D02*
X9698158Y-11640674D01*
X9698158Y-11640674D02*
X9717205Y-11631150D01*
X9717205Y-11631150D02*
X9745777Y-11631150D01*
X9745777Y-11631150D02*
X9764825Y-11640674D01*
X9764825Y-11640674D02*
X9774348Y-11659722D01*
X9774348Y-11659722D02*
X9774348Y-11764484D01*
X9869586Y-11764484D02*
X9869586Y-11631150D01*
X9869586Y-11650198D02*
X9879110Y-11640674D01*
X9879110Y-11640674D02*
X9898158Y-11631150D01*
X9898158Y-11631150D02*
X9926729Y-11631150D01*
X9926729Y-11631150D02*
X9945777Y-11640674D01*
X9945777Y-11640674D02*
X9955301Y-11659722D01*
X9955301Y-11659722D02*
X9955301Y-11764484D01*
X9955301Y-11659722D02*
X9964825Y-11640674D01*
X9964825Y-11640674D02*
X9983872Y-11631150D01*
X9983872Y-11631150D02*
X10012444Y-11631150D01*
X10012444Y-11631150D02*
X10031491Y-11640674D01*
X10031491Y-11640674D02*
X10041015Y-11659722D01*
X10041015Y-11659722D02*
X10041015Y-11764484D01*
X10431491Y-11554960D02*
X10260063Y-11812103D01*
X10688634Y-11564484D02*
X10707682Y-11564484D01*
X10707682Y-11564484D02*
X10726729Y-11574008D01*
X10726729Y-11574008D02*
X10736253Y-11583531D01*
X10736253Y-11583531D02*
X10745777Y-11602579D01*
X10745777Y-11602579D02*
X10755301Y-11640674D01*
X10755301Y-11640674D02*
X10755301Y-11688293D01*
X10755301Y-11688293D02*
X10745777Y-11726388D01*
X10745777Y-11726388D02*
X10736253Y-11745436D01*
X10736253Y-11745436D02*
X10726729Y-11754960D01*
X10726729Y-11754960D02*
X10707682Y-11764484D01*
X10707682Y-11764484D02*
X10688634Y-11764484D01*
X10688634Y-11764484D02*
X10669587Y-11754960D01*
X10669587Y-11754960D02*
X10660063Y-11745436D01*
X10660063Y-11745436D02*
X10650539Y-11726388D01*
X10650539Y-11726388D02*
X10641015Y-11688293D01*
X10641015Y-11688293D02*
X10641015Y-11640674D01*
X10641015Y-11640674D02*
X10650539Y-11602579D01*
X10650539Y-11602579D02*
X10660063Y-11583531D01*
X10660063Y-11583531D02*
X10669587Y-11574008D01*
X10669587Y-11574008D02*
X10688634Y-11564484D01*
X10841015Y-11745436D02*
X10850539Y-11754960D01*
X10850539Y-11754960D02*
X10841015Y-11764484D01*
X10841015Y-11764484D02*
X10831491Y-11754960D01*
X10831491Y-11754960D02*
X10841015Y-11745436D01*
X10841015Y-11745436D02*
X10841015Y-11764484D01*
X10974348Y-11564484D02*
X10993396Y-11564484D01*
X10993396Y-11564484D02*
X11012444Y-11574008D01*
X11012444Y-11574008D02*
X11021968Y-11583531D01*
X11021968Y-11583531D02*
X11031491Y-11602579D01*
X11031491Y-11602579D02*
X11041015Y-11640674D01*
X11041015Y-11640674D02*
X11041015Y-11688293D01*
X11041015Y-11688293D02*
X11031491Y-11726388D01*
X11031491Y-11726388D02*
X11021968Y-11745436D01*
X11021968Y-11745436D02*
X11012444Y-11754960D01*
X11012444Y-11754960D02*
X10993396Y-11764484D01*
X10993396Y-11764484D02*
X10974348Y-11764484D01*
X10974348Y-11764484D02*
X10955301Y-11754960D01*
X10955301Y-11754960D02*
X10945777Y-11745436D01*
X10945777Y-11745436D02*
X10936253Y-11726388D01*
X10936253Y-11726388D02*
X10926729Y-11688293D01*
X10926729Y-11688293D02*
X10926729Y-11640674D01*
X10926729Y-11640674D02*
X10936253Y-11602579D01*
X10936253Y-11602579D02*
X10945777Y-11583531D01*
X10945777Y-11583531D02*
X10955301Y-11574008D01*
X10955301Y-11574008D02*
X10974348Y-11564484D01*
X11117206Y-11583531D02*
X11126729Y-11574008D01*
X11126729Y-11574008D02*
X11145777Y-11564484D01*
X11145777Y-11564484D02*
X11193396Y-11564484D01*
X11193396Y-11564484D02*
X11212444Y-11574008D01*
X11212444Y-11574008D02*
X11221967Y-11583531D01*
X11221967Y-11583531D02*
X11231491Y-11602579D01*
X11231491Y-11602579D02*
X11231491Y-11621627D01*
X11231491Y-11621627D02*
X11221967Y-11650198D01*
X11221967Y-11650198D02*
X11107682Y-11764484D01*
X11107682Y-11764484D02*
X11231491Y-11764484D01*
X11298158Y-11564484D02*
X11431491Y-11564484D01*
X11431491Y-11564484D02*
X11345777Y-11764484D01*
X11593396Y-11564484D02*
X11555301Y-11564484D01*
X11555301Y-11564484D02*
X11536253Y-11574008D01*
X11536253Y-11574008D02*
X11526729Y-11583531D01*
X11526729Y-11583531D02*
X11507682Y-11612103D01*
X11507682Y-11612103D02*
X11498158Y-11650198D01*
X11498158Y-11650198D02*
X11498158Y-11726388D01*
X11498158Y-11726388D02*
X11507682Y-11745436D01*
X11507682Y-11745436D02*
X11517206Y-11754960D01*
X11517206Y-11754960D02*
X11536253Y-11764484D01*
X11536253Y-11764484D02*
X11574348Y-11764484D01*
X11574348Y-11764484D02*
X11593396Y-11754960D01*
X11593396Y-11754960D02*
X11602920Y-11745436D01*
X11602920Y-11745436D02*
X11612444Y-11726388D01*
X11612444Y-11726388D02*
X11612444Y-11678769D01*
X11612444Y-11678769D02*
X11602920Y-11659722D01*
X11602920Y-11659722D02*
X11593396Y-11650198D01*
X11593396Y-11650198D02*
X11574348Y-11640674D01*
X11574348Y-11640674D02*
X11536253Y-11640674D01*
X11536253Y-11640674D02*
X11517206Y-11650198D01*
X11517206Y-11650198D02*
X11507682Y-11659722D01*
X11507682Y-11659722D02*
X11498158Y-11678769D01*
X11688634Y-11564484D02*
X11688634Y-11602579D01*
X11764825Y-11564484D02*
X11764825Y-11602579D01*
X12060063Y-11840674D02*
X12050539Y-11831150D01*
X12050539Y-11831150D02*
X12031491Y-11802579D01*
X12031491Y-11802579D02*
X12021968Y-11783531D01*
X12021968Y-11783531D02*
X12012444Y-11754960D01*
X12012444Y-11754960D02*
X12002920Y-11707341D01*
X12002920Y-11707341D02*
X12002920Y-11669246D01*
X12002920Y-11669246D02*
X12012444Y-11621627D01*
X12012444Y-11621627D02*
X12021968Y-11593055D01*
X12021968Y-11593055D02*
X12031491Y-11574008D01*
X12031491Y-11574008D02*
X12050539Y-11545436D01*
X12050539Y-11545436D02*
X12060063Y-11535912D01*
X12174348Y-11564484D02*
X12193396Y-11564484D01*
X12193396Y-11564484D02*
X12212444Y-11574008D01*
X12212444Y-11574008D02*
X12221968Y-11583531D01*
X12221968Y-11583531D02*
X12231491Y-11602579D01*
X12231491Y-11602579D02*
X12241015Y-11640674D01*
X12241015Y-11640674D02*
X12241015Y-11688293D01*
X12241015Y-11688293D02*
X12231491Y-11726388D01*
X12231491Y-11726388D02*
X12221968Y-11745436D01*
X12221968Y-11745436D02*
X12212444Y-11754960D01*
X12212444Y-11754960D02*
X12193396Y-11764484D01*
X12193396Y-11764484D02*
X12174348Y-11764484D01*
X12174348Y-11764484D02*
X12155301Y-11754960D01*
X12155301Y-11754960D02*
X12145777Y-11745436D01*
X12145777Y-11745436D02*
X12136253Y-11726388D01*
X12136253Y-11726388D02*
X12126729Y-11688293D01*
X12126729Y-11688293D02*
X12126729Y-11640674D01*
X12126729Y-11640674D02*
X12136253Y-11602579D01*
X12136253Y-11602579D02*
X12145777Y-11583531D01*
X12145777Y-11583531D02*
X12155301Y-11574008D01*
X12155301Y-11574008D02*
X12174348Y-11564484D01*
X12479110Y-11764484D02*
X12479110Y-11564484D01*
X12564825Y-11764484D02*
X12564825Y-11659722D01*
X12564825Y-11659722D02*
X12555301Y-11640674D01*
X12555301Y-11640674D02*
X12536253Y-11631150D01*
X12536253Y-11631150D02*
X12507682Y-11631150D01*
X12507682Y-11631150D02*
X12488634Y-11640674D01*
X12488634Y-11640674D02*
X12479110Y-11650198D01*
X12688634Y-11764484D02*
X12669587Y-11754960D01*
X12669587Y-11754960D02*
X12660063Y-11745436D01*
X12660063Y-11745436D02*
X12650539Y-11726388D01*
X12650539Y-11726388D02*
X12650539Y-11669246D01*
X12650539Y-11669246D02*
X12660063Y-11650198D01*
X12660063Y-11650198D02*
X12669587Y-11640674D01*
X12669587Y-11640674D02*
X12688634Y-11631150D01*
X12688634Y-11631150D02*
X12717206Y-11631150D01*
X12717206Y-11631150D02*
X12736253Y-11640674D01*
X12736253Y-11640674D02*
X12745777Y-11650198D01*
X12745777Y-11650198D02*
X12755301Y-11669246D01*
X12755301Y-11669246D02*
X12755301Y-11726388D01*
X12755301Y-11726388D02*
X12745777Y-11745436D01*
X12745777Y-11745436D02*
X12736253Y-11754960D01*
X12736253Y-11754960D02*
X12717206Y-11764484D01*
X12717206Y-11764484D02*
X12688634Y-11764484D01*
X12869587Y-11764484D02*
X12850539Y-11754960D01*
X12850539Y-11754960D02*
X12841015Y-11735912D01*
X12841015Y-11735912D02*
X12841015Y-11564484D01*
X13021968Y-11754960D02*
X13002920Y-11764484D01*
X13002920Y-11764484D02*
X12964825Y-11764484D01*
X12964825Y-11764484D02*
X12945777Y-11754960D01*
X12945777Y-11754960D02*
X12936253Y-11735912D01*
X12936253Y-11735912D02*
X12936253Y-11659722D01*
X12936253Y-11659722D02*
X12945777Y-11640674D01*
X12945777Y-11640674D02*
X12964825Y-11631150D01*
X12964825Y-11631150D02*
X13002920Y-11631150D01*
X13002920Y-11631150D02*
X13021968Y-11640674D01*
X13021968Y-11640674D02*
X13031491Y-11659722D01*
X13031491Y-11659722D02*
X13031491Y-11678769D01*
X13031491Y-11678769D02*
X12936253Y-11697817D01*
X13107682Y-11754960D02*
X13126730Y-11764484D01*
X13126730Y-11764484D02*
X13164825Y-11764484D01*
X13164825Y-11764484D02*
X13183872Y-11754960D01*
X13183872Y-11754960D02*
X13193396Y-11735912D01*
X13193396Y-11735912D02*
X13193396Y-11726388D01*
X13193396Y-11726388D02*
X13183872Y-11707341D01*
X13183872Y-11707341D02*
X13164825Y-11697817D01*
X13164825Y-11697817D02*
X13136253Y-11697817D01*
X13136253Y-11697817D02*
X13117206Y-11688293D01*
X13117206Y-11688293D02*
X13107682Y-11669246D01*
X13107682Y-11669246D02*
X13107682Y-11659722D01*
X13107682Y-11659722D02*
X13117206Y-11640674D01*
X13117206Y-11640674D02*
X13136253Y-11631150D01*
X13136253Y-11631150D02*
X13164825Y-11631150D01*
X13164825Y-11631150D02*
X13183872Y-11640674D01*
X13431492Y-11688293D02*
X13583873Y-11688293D01*
X13507682Y-11764484D02*
X13507682Y-11612103D01*
X13821968Y-11583531D02*
X13831492Y-11574008D01*
X13831492Y-11574008D02*
X13850539Y-11564484D01*
X13850539Y-11564484D02*
X13898158Y-11564484D01*
X13898158Y-11564484D02*
X13917206Y-11574008D01*
X13917206Y-11574008D02*
X13926730Y-11583531D01*
X13926730Y-11583531D02*
X13936253Y-11602579D01*
X13936253Y-11602579D02*
X13936253Y-11621627D01*
X13936253Y-11621627D02*
X13926730Y-11650198D01*
X13926730Y-11650198D02*
X13812444Y-11764484D01*
X13812444Y-11764484D02*
X13936253Y-11764484D01*
X14164825Y-11754960D02*
X14183873Y-11764484D01*
X14183873Y-11764484D02*
X14221968Y-11764484D01*
X14221968Y-11764484D02*
X14241015Y-11754960D01*
X14241015Y-11754960D02*
X14250539Y-11735912D01*
X14250539Y-11735912D02*
X14250539Y-11726388D01*
X14250539Y-11726388D02*
X14241015Y-11707341D01*
X14241015Y-11707341D02*
X14221968Y-11697817D01*
X14221968Y-11697817D02*
X14193396Y-11697817D01*
X14193396Y-11697817D02*
X14174349Y-11688293D01*
X14174349Y-11688293D02*
X14164825Y-11669246D01*
X14164825Y-11669246D02*
X14164825Y-11659722D01*
X14164825Y-11659722D02*
X14174349Y-11640674D01*
X14174349Y-11640674D02*
X14193396Y-11631150D01*
X14193396Y-11631150D02*
X14221968Y-11631150D01*
X14221968Y-11631150D02*
X14241015Y-11640674D01*
X14364825Y-11764484D02*
X14345777Y-11754960D01*
X14345777Y-11754960D02*
X14336254Y-11735912D01*
X14336254Y-11735912D02*
X14336254Y-11564484D01*
X14469587Y-11764484D02*
X14450539Y-11754960D01*
X14450539Y-11754960D02*
X14441015Y-11745436D01*
X14441015Y-11745436D02*
X14431492Y-11726388D01*
X14431492Y-11726388D02*
X14431492Y-11669246D01*
X14431492Y-11669246D02*
X14441015Y-11650198D01*
X14441015Y-11650198D02*
X14450539Y-11640674D01*
X14450539Y-11640674D02*
X14469587Y-11631150D01*
X14469587Y-11631150D02*
X14498158Y-11631150D01*
X14498158Y-11631150D02*
X14517206Y-11640674D01*
X14517206Y-11640674D02*
X14526730Y-11650198D01*
X14526730Y-11650198D02*
X14536254Y-11669246D01*
X14536254Y-11669246D02*
X14536254Y-11726388D01*
X14536254Y-11726388D02*
X14526730Y-11745436D01*
X14526730Y-11745436D02*
X14517206Y-11754960D01*
X14517206Y-11754960D02*
X14498158Y-11764484D01*
X14498158Y-11764484D02*
X14469587Y-11764484D01*
X14593396Y-11631150D02*
X14669587Y-11631150D01*
X14621968Y-11564484D02*
X14621968Y-11735912D01*
X14621968Y-11735912D02*
X14631492Y-11754960D01*
X14631492Y-11754960D02*
X14650539Y-11764484D01*
X14650539Y-11764484D02*
X14669587Y-11764484D01*
X14726730Y-11754960D02*
X14745777Y-11764484D01*
X14745777Y-11764484D02*
X14783873Y-11764484D01*
X14783873Y-11764484D02*
X14802920Y-11754960D01*
X14802920Y-11754960D02*
X14812444Y-11735912D01*
X14812444Y-11735912D02*
X14812444Y-11726388D01*
X14812444Y-11726388D02*
X14802920Y-11707341D01*
X14802920Y-11707341D02*
X14783873Y-11697817D01*
X14783873Y-11697817D02*
X14755301Y-11697817D01*
X14755301Y-11697817D02*
X14736254Y-11688293D01*
X14736254Y-11688293D02*
X14726730Y-11669246D01*
X14726730Y-11669246D02*
X14726730Y-11659722D01*
X14726730Y-11659722D02*
X14736254Y-11640674D01*
X14736254Y-11640674D02*
X14755301Y-11631150D01*
X14755301Y-11631150D02*
X14783873Y-11631150D01*
X14783873Y-11631150D02*
X14802920Y-11640674D01*
X14879111Y-11840674D02*
X14888635Y-11831150D01*
X14888635Y-11831150D02*
X14907682Y-11802579D01*
X14907682Y-11802579D02*
X14917206Y-11783531D01*
X14917206Y-11783531D02*
X14926730Y-11754960D01*
X14926730Y-11754960D02*
X14936254Y-11707341D01*
X14936254Y-11707341D02*
X14936254Y-11669246D01*
X14936254Y-11669246D02*
X14926730Y-11621627D01*
X14926730Y-11621627D02*
X14917206Y-11593055D01*
X14917206Y-11593055D02*
X14907682Y-11574008D01*
X14907682Y-11574008D02*
X14888635Y-11545436D01*
X14888635Y-11545436D02*
X14879111Y-11535912D01*
D10*
X8470356Y-11972356D02*
X8470356Y-11901644D01*
X8399644Y-11901644D01*
X8399644Y-11972356D01*
X8470356Y-11972356D01*
D11*
X8850539Y-12028484D02*
X8736253Y-12028484D01*
X8793396Y-12028484D02*
X8793396Y-11828484D01*
X8793396Y-11828484D02*
X8774348Y-11857055D01*
X8774348Y-11857055D02*
X8755301Y-11876103D01*
X8755301Y-11876103D02*
X8736253Y-11885627D01*
X8936253Y-12009436D02*
X8945777Y-12018960D01*
X8945777Y-12018960D02*
X8936253Y-12028484D01*
X8936253Y-12028484D02*
X8926729Y-12018960D01*
X8926729Y-12018960D02*
X8936253Y-12009436D01*
X8936253Y-12009436D02*
X8936253Y-12028484D01*
X9069586Y-11828484D02*
X9088634Y-11828484D01*
X9088634Y-11828484D02*
X9107682Y-11838008D01*
X9107682Y-11838008D02*
X9117205Y-11847531D01*
X9117205Y-11847531D02*
X9126729Y-11866579D01*
X9126729Y-11866579D02*
X9136253Y-11904674D01*
X9136253Y-11904674D02*
X9136253Y-11952293D01*
X9136253Y-11952293D02*
X9126729Y-11990388D01*
X9126729Y-11990388D02*
X9117205Y-12009436D01*
X9117205Y-12009436D02*
X9107682Y-12018960D01*
X9107682Y-12018960D02*
X9088634Y-12028484D01*
X9088634Y-12028484D02*
X9069586Y-12028484D01*
X9069586Y-12028484D02*
X9050539Y-12018960D01*
X9050539Y-12018960D02*
X9041015Y-12009436D01*
X9041015Y-12009436D02*
X9031491Y-11990388D01*
X9031491Y-11990388D02*
X9021967Y-11952293D01*
X9021967Y-11952293D02*
X9021967Y-11904674D01*
X9021967Y-11904674D02*
X9031491Y-11866579D01*
X9031491Y-11866579D02*
X9041015Y-11847531D01*
X9041015Y-11847531D02*
X9050539Y-11838008D01*
X9050539Y-11838008D02*
X9069586Y-11828484D01*
X9260063Y-11828484D02*
X9279110Y-11828484D01*
X9279110Y-11828484D02*
X9298158Y-11838008D01*
X9298158Y-11838008D02*
X9307682Y-11847531D01*
X9307682Y-11847531D02*
X9317205Y-11866579D01*
X9317205Y-11866579D02*
X9326729Y-11904674D01*
X9326729Y-11904674D02*
X9326729Y-11952293D01*
X9326729Y-11952293D02*
X9317205Y-11990388D01*
X9317205Y-11990388D02*
X9307682Y-12009436D01*
X9307682Y-12009436D02*
X9298158Y-12018960D01*
X9298158Y-12018960D02*
X9279110Y-12028484D01*
X9279110Y-12028484D02*
X9260063Y-12028484D01*
X9260063Y-12028484D02*
X9241015Y-12018960D01*
X9241015Y-12018960D02*
X9231491Y-12009436D01*
X9231491Y-12009436D02*
X9221967Y-11990388D01*
X9221967Y-11990388D02*
X9212444Y-11952293D01*
X9212444Y-11952293D02*
X9212444Y-11904674D01*
X9212444Y-11904674D02*
X9221967Y-11866579D01*
X9221967Y-11866579D02*
X9231491Y-11847531D01*
X9231491Y-11847531D02*
X9241015Y-11838008D01*
X9241015Y-11838008D02*
X9260063Y-11828484D01*
X9450539Y-11828484D02*
X9469586Y-11828484D01*
X9469586Y-11828484D02*
X9488634Y-11838008D01*
X9488634Y-11838008D02*
X9498158Y-11847531D01*
X9498158Y-11847531D02*
X9507682Y-11866579D01*
X9507682Y-11866579D02*
X9517205Y-11904674D01*
X9517205Y-11904674D02*
X9517205Y-11952293D01*
X9517205Y-11952293D02*
X9507682Y-11990388D01*
X9507682Y-11990388D02*
X9498158Y-12009436D01*
X9498158Y-12009436D02*
X9488634Y-12018960D01*
X9488634Y-12018960D02*
X9469586Y-12028484D01*
X9469586Y-12028484D02*
X9450539Y-12028484D01*
X9450539Y-12028484D02*
X9431491Y-12018960D01*
X9431491Y-12018960D02*
X9421967Y-12009436D01*
X9421967Y-12009436D02*
X9412444Y-11990388D01*
X9412444Y-11990388D02*
X9402920Y-11952293D01*
X9402920Y-11952293D02*
X9402920Y-11904674D01*
X9402920Y-11904674D02*
X9412444Y-11866579D01*
X9412444Y-11866579D02*
X9421967Y-11847531D01*
X9421967Y-11847531D02*
X9431491Y-11838008D01*
X9431491Y-11838008D02*
X9450539Y-11828484D01*
X9602920Y-12028484D02*
X9602920Y-11895150D01*
X9602920Y-11914198D02*
X9612444Y-11904674D01*
X9612444Y-11904674D02*
X9631491Y-11895150D01*
X9631491Y-11895150D02*
X9660063Y-11895150D01*
X9660063Y-11895150D02*
X9679110Y-11904674D01*
X9679110Y-11904674D02*
X9688634Y-11923722D01*
X9688634Y-11923722D02*
X9688634Y-12028484D01*
X9688634Y-11923722D02*
X9698158Y-11904674D01*
X9698158Y-11904674D02*
X9717205Y-11895150D01*
X9717205Y-11895150D02*
X9745777Y-11895150D01*
X9745777Y-11895150D02*
X9764825Y-11904674D01*
X9764825Y-11904674D02*
X9774348Y-11923722D01*
X9774348Y-11923722D02*
X9774348Y-12028484D01*
X9869586Y-12028484D02*
X9869586Y-11895150D01*
X9869586Y-11914198D02*
X9879110Y-11904674D01*
X9879110Y-11904674D02*
X9898158Y-11895150D01*
X9898158Y-11895150D02*
X9926729Y-11895150D01*
X9926729Y-11895150D02*
X9945777Y-11904674D01*
X9945777Y-11904674D02*
X9955301Y-11923722D01*
X9955301Y-11923722D02*
X9955301Y-12028484D01*
X9955301Y-11923722D02*
X9964825Y-11904674D01*
X9964825Y-11904674D02*
X9983872Y-11895150D01*
X9983872Y-11895150D02*
X10012444Y-11895150D01*
X10012444Y-11895150D02*
X10031491Y-11904674D01*
X10031491Y-11904674D02*
X10041015Y-11923722D01*
X10041015Y-11923722D02*
X10041015Y-12028484D01*
X10431491Y-11818960D02*
X10260063Y-12076103D01*
X10688634Y-11828484D02*
X10707682Y-11828484D01*
X10707682Y-11828484D02*
X10726729Y-11838008D01*
X10726729Y-11838008D02*
X10736253Y-11847531D01*
X10736253Y-11847531D02*
X10745777Y-11866579D01*
X10745777Y-11866579D02*
X10755301Y-11904674D01*
X10755301Y-11904674D02*
X10755301Y-11952293D01*
X10755301Y-11952293D02*
X10745777Y-11990388D01*
X10745777Y-11990388D02*
X10736253Y-12009436D01*
X10736253Y-12009436D02*
X10726729Y-12018960D01*
X10726729Y-12018960D02*
X10707682Y-12028484D01*
X10707682Y-12028484D02*
X10688634Y-12028484D01*
X10688634Y-12028484D02*
X10669587Y-12018960D01*
X10669587Y-12018960D02*
X10660063Y-12009436D01*
X10660063Y-12009436D02*
X10650539Y-11990388D01*
X10650539Y-11990388D02*
X10641015Y-11952293D01*
X10641015Y-11952293D02*
X10641015Y-11904674D01*
X10641015Y-11904674D02*
X10650539Y-11866579D01*
X10650539Y-11866579D02*
X10660063Y-11847531D01*
X10660063Y-11847531D02*
X10669587Y-11838008D01*
X10669587Y-11838008D02*
X10688634Y-11828484D01*
X10841015Y-12009436D02*
X10850539Y-12018960D01*
X10850539Y-12018960D02*
X10841015Y-12028484D01*
X10841015Y-12028484D02*
X10831491Y-12018960D01*
X10831491Y-12018960D02*
X10841015Y-12009436D01*
X10841015Y-12009436D02*
X10841015Y-12028484D01*
X10974348Y-11828484D02*
X10993396Y-11828484D01*
X10993396Y-11828484D02*
X11012444Y-11838008D01*
X11012444Y-11838008D02*
X11021968Y-11847531D01*
X11021968Y-11847531D02*
X11031491Y-11866579D01*
X11031491Y-11866579D02*
X11041015Y-11904674D01*
X11041015Y-11904674D02*
X11041015Y-11952293D01*
X11041015Y-11952293D02*
X11031491Y-11990388D01*
X11031491Y-11990388D02*
X11021968Y-12009436D01*
X11021968Y-12009436D02*
X11012444Y-12018960D01*
X11012444Y-12018960D02*
X10993396Y-12028484D01*
X10993396Y-12028484D02*
X10974348Y-12028484D01*
X10974348Y-12028484D02*
X10955301Y-12018960D01*
X10955301Y-12018960D02*
X10945777Y-12009436D01*
X10945777Y-12009436D02*
X10936253Y-11990388D01*
X10936253Y-11990388D02*
X10926729Y-11952293D01*
X10926729Y-11952293D02*
X10926729Y-11904674D01*
X10926729Y-11904674D02*
X10936253Y-11866579D01*
X10936253Y-11866579D02*
X10945777Y-11847531D01*
X10945777Y-11847531D02*
X10955301Y-11838008D01*
X10955301Y-11838008D02*
X10974348Y-11828484D01*
X11107682Y-11828484D02*
X11231491Y-11828484D01*
X11231491Y-11828484D02*
X11164825Y-11904674D01*
X11164825Y-11904674D02*
X11193396Y-11904674D01*
X11193396Y-11904674D02*
X11212444Y-11914198D01*
X11212444Y-11914198D02*
X11221967Y-11923722D01*
X11221967Y-11923722D02*
X11231491Y-11942769D01*
X11231491Y-11942769D02*
X11231491Y-11990388D01*
X11231491Y-11990388D02*
X11221967Y-12009436D01*
X11221967Y-12009436D02*
X11212444Y-12018960D01*
X11212444Y-12018960D02*
X11193396Y-12028484D01*
X11193396Y-12028484D02*
X11136253Y-12028484D01*
X11136253Y-12028484D02*
X11117206Y-12018960D01*
X11117206Y-12018960D02*
X11107682Y-12009436D01*
X11326729Y-12028484D02*
X11364825Y-12028484D01*
X11364825Y-12028484D02*
X11383872Y-12018960D01*
X11383872Y-12018960D02*
X11393396Y-12009436D01*
X11393396Y-12009436D02*
X11412444Y-11980865D01*
X11412444Y-11980865D02*
X11421967Y-11942769D01*
X11421967Y-11942769D02*
X11421967Y-11866579D01*
X11421967Y-11866579D02*
X11412444Y-11847531D01*
X11412444Y-11847531D02*
X11402920Y-11838008D01*
X11402920Y-11838008D02*
X11383872Y-11828484D01*
X11383872Y-11828484D02*
X11345777Y-11828484D01*
X11345777Y-11828484D02*
X11326729Y-11838008D01*
X11326729Y-11838008D02*
X11317206Y-11847531D01*
X11317206Y-11847531D02*
X11307682Y-11866579D01*
X11307682Y-11866579D02*
X11307682Y-11914198D01*
X11307682Y-11914198D02*
X11317206Y-11933246D01*
X11317206Y-11933246D02*
X11326729Y-11942769D01*
X11326729Y-11942769D02*
X11345777Y-11952293D01*
X11345777Y-11952293D02*
X11383872Y-11952293D01*
X11383872Y-11952293D02*
X11402920Y-11942769D01*
X11402920Y-11942769D02*
X11412444Y-11933246D01*
X11412444Y-11933246D02*
X11421967Y-11914198D01*
X11593396Y-11895150D02*
X11593396Y-12028484D01*
X11545777Y-11818960D02*
X11498158Y-11961817D01*
X11498158Y-11961817D02*
X11621967Y-11961817D01*
X11688634Y-11828484D02*
X11688634Y-11866579D01*
X11764825Y-11828484D02*
X11764825Y-11866579D01*
X12060063Y-12104674D02*
X12050539Y-12095150D01*
X12050539Y-12095150D02*
X12031491Y-12066579D01*
X12031491Y-12066579D02*
X12021968Y-12047531D01*
X12021968Y-12047531D02*
X12012444Y-12018960D01*
X12012444Y-12018960D02*
X12002920Y-11971341D01*
X12002920Y-11971341D02*
X12002920Y-11933246D01*
X12002920Y-11933246D02*
X12012444Y-11885627D01*
X12012444Y-11885627D02*
X12021968Y-11857055D01*
X12021968Y-11857055D02*
X12031491Y-11838008D01*
X12031491Y-11838008D02*
X12050539Y-11809436D01*
X12050539Y-11809436D02*
X12060063Y-11799912D01*
X12221968Y-11895150D02*
X12221968Y-12028484D01*
X12174348Y-11818960D02*
X12126729Y-11961817D01*
X12126729Y-11961817D02*
X12250539Y-11961817D01*
X12317206Y-11847531D02*
X12326729Y-11838008D01*
X12326729Y-11838008D02*
X12345777Y-11828484D01*
X12345777Y-11828484D02*
X12393396Y-11828484D01*
X12393396Y-11828484D02*
X12412444Y-11838008D01*
X12412444Y-11838008D02*
X12421968Y-11847531D01*
X12421968Y-11847531D02*
X12431491Y-11866579D01*
X12431491Y-11866579D02*
X12431491Y-11885627D01*
X12431491Y-11885627D02*
X12421968Y-11914198D01*
X12421968Y-11914198D02*
X12307682Y-12028484D01*
X12307682Y-12028484D02*
X12431491Y-12028484D01*
X12669587Y-12028484D02*
X12669587Y-11828484D01*
X12755301Y-12028484D02*
X12755301Y-11923722D01*
X12755301Y-11923722D02*
X12745777Y-11904674D01*
X12745777Y-11904674D02*
X12726730Y-11895150D01*
X12726730Y-11895150D02*
X12698158Y-11895150D01*
X12698158Y-11895150D02*
X12679110Y-11904674D01*
X12679110Y-11904674D02*
X12669587Y-11914198D01*
X12879110Y-12028484D02*
X12860063Y-12018960D01*
X12860063Y-12018960D02*
X12850539Y-12009436D01*
X12850539Y-12009436D02*
X12841015Y-11990388D01*
X12841015Y-11990388D02*
X12841015Y-11933246D01*
X12841015Y-11933246D02*
X12850539Y-11914198D01*
X12850539Y-11914198D02*
X12860063Y-11904674D01*
X12860063Y-11904674D02*
X12879110Y-11895150D01*
X12879110Y-11895150D02*
X12907682Y-11895150D01*
X12907682Y-11895150D02*
X12926730Y-11904674D01*
X12926730Y-11904674D02*
X12936253Y-11914198D01*
X12936253Y-11914198D02*
X12945777Y-11933246D01*
X12945777Y-11933246D02*
X12945777Y-11990388D01*
X12945777Y-11990388D02*
X12936253Y-12009436D01*
X12936253Y-12009436D02*
X12926730Y-12018960D01*
X12926730Y-12018960D02*
X12907682Y-12028484D01*
X12907682Y-12028484D02*
X12879110Y-12028484D01*
X13060063Y-12028484D02*
X13041015Y-12018960D01*
X13041015Y-12018960D02*
X13031491Y-11999912D01*
X13031491Y-11999912D02*
X13031491Y-11828484D01*
X13212444Y-12018960D02*
X13193396Y-12028484D01*
X13193396Y-12028484D02*
X13155301Y-12028484D01*
X13155301Y-12028484D02*
X13136253Y-12018960D01*
X13136253Y-12018960D02*
X13126730Y-11999912D01*
X13126730Y-11999912D02*
X13126730Y-11923722D01*
X13126730Y-11923722D02*
X13136253Y-11904674D01*
X13136253Y-11904674D02*
X13155301Y-11895150D01*
X13155301Y-11895150D02*
X13193396Y-11895150D01*
X13193396Y-11895150D02*
X13212444Y-11904674D01*
X13212444Y-11904674D02*
X13221968Y-11923722D01*
X13221968Y-11923722D02*
X13221968Y-11942769D01*
X13221968Y-11942769D02*
X13126730Y-11961817D01*
X13298158Y-12018960D02*
X13317206Y-12028484D01*
X13317206Y-12028484D02*
X13355301Y-12028484D01*
X13355301Y-12028484D02*
X13374349Y-12018960D01*
X13374349Y-12018960D02*
X13383872Y-11999912D01*
X13383872Y-11999912D02*
X13383872Y-11990388D01*
X13383872Y-11990388D02*
X13374349Y-11971341D01*
X13374349Y-11971341D02*
X13355301Y-11961817D01*
X13355301Y-11961817D02*
X13326730Y-11961817D01*
X13326730Y-11961817D02*
X13307682Y-11952293D01*
X13307682Y-11952293D02*
X13298158Y-11933246D01*
X13298158Y-11933246D02*
X13298158Y-11923722D01*
X13298158Y-11923722D02*
X13307682Y-11904674D01*
X13307682Y-11904674D02*
X13326730Y-11895150D01*
X13326730Y-11895150D02*
X13355301Y-11895150D01*
X13355301Y-11895150D02*
X13374349Y-11904674D01*
X13450539Y-12104674D02*
X13460063Y-12095150D01*
X13460063Y-12095150D02*
X13479111Y-12066579D01*
X13479111Y-12066579D02*
X13488634Y-12047531D01*
X13488634Y-12047531D02*
X13498158Y-12018960D01*
X13498158Y-12018960D02*
X13507682Y-11971341D01*
X13507682Y-11971341D02*
X13507682Y-11933246D01*
X13507682Y-11933246D02*
X13498158Y-11885627D01*
X13498158Y-11885627D02*
X13488634Y-11857055D01*
X13488634Y-11857055D02*
X13479111Y-11838008D01*
X13479111Y-11838008D02*
X13460063Y-11809436D01*
X13460063Y-11809436D02*
X13450539Y-11799912D01*
M02*
