G04 #@! TF.GenerationSoftware,KiCad,Pcbnew,7.0.10*
G04 #@! TF.CreationDate,2024-01-27T03:33:41-06:00*
G04 #@! TF.ProjectId,STM32H503CBT6,53544d33-3248-4353-9033-434254362e6b,rev?*
G04 #@! TF.SameCoordinates,Original*
G04 #@! TF.FileFunction,Soldermask,Bot*
G04 #@! TF.FilePolarity,Negative*
%FSLAX46Y46*%
G04 Gerber Fmt 4.6, Leading zero omitted, Abs format (unit mm)*
G04 Created by KiCad (PCBNEW 7.0.10) date 2024-01-27 03:33:41*
%MOMM*%
%LPD*%
G01*
G04 APERTURE LIST*
%ADD10O,1.400000X2.500000*%
%ADD11O,1.300000X2.300000*%
%ADD12R,1.700000X1.700000*%
%ADD13O,1.700000X1.700000*%
G04 APERTURE END LIST*
D10*
X98700000Y-59875000D03*
D11*
X98700000Y-56525000D03*
D10*
X89100000Y-59875000D03*
D11*
X89100000Y-56525000D03*
D12*
X90080000Y-103100000D03*
D13*
X92620000Y-103100000D03*
X95160000Y-103100000D03*
X97700000Y-103100000D03*
D12*
X101500000Y-57380000D03*
D13*
X101500000Y-59920000D03*
X101500000Y-62460000D03*
X101500000Y-65000000D03*
X101500000Y-67540000D03*
X101500000Y-70080000D03*
X101500000Y-72620000D03*
X101500000Y-75160000D03*
X101500000Y-77700000D03*
X101500000Y-80240000D03*
X101500000Y-82780000D03*
X101500000Y-85320000D03*
X101500000Y-87860000D03*
X101500000Y-90400000D03*
X101500000Y-92940000D03*
X101500000Y-95480000D03*
X101500000Y-98020000D03*
X101500000Y-100560000D03*
X101500000Y-103100000D03*
D12*
X86260000Y-57380000D03*
D13*
X86260000Y-59920000D03*
X86260000Y-62460000D03*
X86260000Y-65000000D03*
X86260000Y-67540000D03*
X86260000Y-70080000D03*
X86260000Y-72620000D03*
X86260000Y-75160000D03*
X86260000Y-77700000D03*
X86260000Y-80240000D03*
X86260000Y-82780000D03*
X86260000Y-85320000D03*
X86260000Y-87860000D03*
X86260000Y-90400000D03*
X86260000Y-92940000D03*
X86260000Y-95480000D03*
X86260000Y-98020000D03*
X86260000Y-100560000D03*
X86260000Y-103100000D03*
M02*
