%TF.GenerationSoftware,KiCad,Pcbnew,7.0.10*%
%TF.CreationDate,2024-01-27T03:33:38-06:00*%
%TF.ProjectId,STM32H503CBT6,53544d33-3248-4353-9033-434254362e6b,rev?*%
%TF.SameCoordinates,Original*%
%TF.FileFunction,Drillmap*%
%TF.FilePolarity,Positive*%
%FSLAX45Y45*%
G04 Gerber Fmt 4.5, Leading zero omitted, Abs format (unit mm)*
G04 Created by KiCad (PCBNEW 7.0.10) date 2024-01-27 03:33:38*
%MOMM*%
%LPD*%
G01*
G04 APERTURE LIST*
%ADD10C,0.100000*%
%ADD11C,0.200000*%
G04 APERTURE END LIST*
D10*
X9030000Y-5970000D02*
X9750000Y-5970000D01*
X8490000Y-5540000D02*
X8490000Y-10450000D01*
X10240000Y-10500000D02*
G75*
G03*
X10290000Y-10450000I0J50000D01*
G01*
X10290000Y-10450000D02*
X10290000Y-5550000D01*
X9029640Y-5550000D02*
G75*
G03*
X8979645Y-5500000I-50000J0D01*
G01*
X8530000Y-5500000D02*
G75*
G03*
X8490000Y-5540000I0J-40000D01*
G01*
X8979645Y-5500000D02*
X8530000Y-5500000D01*
X8490355Y-10449645D02*
G75*
G03*
X8540355Y-10499645I50005J5D01*
G01*
X8540000Y-10500000D02*
X10240000Y-10500000D01*
X9750000Y-5970000D02*
X9750000Y-5540000D01*
X9790284Y-5500004D02*
G75*
G03*
X9750284Y-5540000I-4J-39996D01*
G01*
X9790284Y-5500000D02*
X10239645Y-5500000D01*
X9030000Y-5550000D02*
X9030000Y-5970000D01*
X10289640Y-5550000D02*
G75*
G03*
X10239645Y-5500000I-50000J0D01*
G01*
D11*
X8745777Y-10816484D02*
X8745777Y-10616484D01*
X8745777Y-10616484D02*
X8793396Y-10616484D01*
X8793396Y-10616484D02*
X8821967Y-10626008D01*
X8821967Y-10626008D02*
X8841015Y-10645055D01*
X8841015Y-10645055D02*
X8850539Y-10664103D01*
X8850539Y-10664103D02*
X8860063Y-10702198D01*
X8860063Y-10702198D02*
X8860063Y-10730770D01*
X8860063Y-10730770D02*
X8850539Y-10768865D01*
X8850539Y-10768865D02*
X8841015Y-10787912D01*
X8841015Y-10787912D02*
X8821967Y-10806960D01*
X8821967Y-10806960D02*
X8793396Y-10816484D01*
X8793396Y-10816484D02*
X8745777Y-10816484D01*
X8945777Y-10816484D02*
X8945777Y-10683150D01*
X8945777Y-10721246D02*
X8955301Y-10702198D01*
X8955301Y-10702198D02*
X8964824Y-10692674D01*
X8964824Y-10692674D02*
X8983872Y-10683150D01*
X8983872Y-10683150D02*
X9002920Y-10683150D01*
X9069586Y-10816484D02*
X9069586Y-10683150D01*
X9069586Y-10616484D02*
X9060063Y-10626008D01*
X9060063Y-10626008D02*
X9069586Y-10635531D01*
X9069586Y-10635531D02*
X9079110Y-10626008D01*
X9079110Y-10626008D02*
X9069586Y-10616484D01*
X9069586Y-10616484D02*
X9069586Y-10635531D01*
X9193396Y-10816484D02*
X9174348Y-10806960D01*
X9174348Y-10806960D02*
X9164824Y-10787912D01*
X9164824Y-10787912D02*
X9164824Y-10616484D01*
X9298158Y-10816484D02*
X9279110Y-10806960D01*
X9279110Y-10806960D02*
X9269586Y-10787912D01*
X9269586Y-10787912D02*
X9269586Y-10616484D01*
X9526729Y-10816484D02*
X9526729Y-10616484D01*
X9526729Y-10616484D02*
X9593396Y-10759341D01*
X9593396Y-10759341D02*
X9660063Y-10616484D01*
X9660063Y-10616484D02*
X9660063Y-10816484D01*
X9841015Y-10816484D02*
X9841015Y-10711722D01*
X9841015Y-10711722D02*
X9831491Y-10692674D01*
X9831491Y-10692674D02*
X9812444Y-10683150D01*
X9812444Y-10683150D02*
X9774348Y-10683150D01*
X9774348Y-10683150D02*
X9755301Y-10692674D01*
X9841015Y-10806960D02*
X9821967Y-10816484D01*
X9821967Y-10816484D02*
X9774348Y-10816484D01*
X9774348Y-10816484D02*
X9755301Y-10806960D01*
X9755301Y-10806960D02*
X9745777Y-10787912D01*
X9745777Y-10787912D02*
X9745777Y-10768865D01*
X9745777Y-10768865D02*
X9755301Y-10749817D01*
X9755301Y-10749817D02*
X9774348Y-10740293D01*
X9774348Y-10740293D02*
X9821967Y-10740293D01*
X9821967Y-10740293D02*
X9841015Y-10730770D01*
X9936253Y-10683150D02*
X9936253Y-10883150D01*
X9936253Y-10692674D02*
X9955301Y-10683150D01*
X9955301Y-10683150D02*
X9993396Y-10683150D01*
X9993396Y-10683150D02*
X10012444Y-10692674D01*
X10012444Y-10692674D02*
X10021967Y-10702198D01*
X10021967Y-10702198D02*
X10031491Y-10721246D01*
X10031491Y-10721246D02*
X10031491Y-10778389D01*
X10031491Y-10778389D02*
X10021967Y-10797436D01*
X10021967Y-10797436D02*
X10012444Y-10806960D01*
X10012444Y-10806960D02*
X9993396Y-10816484D01*
X9993396Y-10816484D02*
X9955301Y-10816484D01*
X9955301Y-10816484D02*
X9936253Y-10806960D01*
X10117205Y-10797436D02*
X10126729Y-10806960D01*
X10126729Y-10806960D02*
X10117205Y-10816484D01*
X10117205Y-10816484D02*
X10107682Y-10806960D01*
X10107682Y-10806960D02*
X10117205Y-10797436D01*
X10117205Y-10797436D02*
X10117205Y-10816484D01*
X10117205Y-10692674D02*
X10126729Y-10702198D01*
X10126729Y-10702198D02*
X10117205Y-10711722D01*
X10117205Y-10711722D02*
X10107682Y-10702198D01*
X10107682Y-10702198D02*
X10117205Y-10692674D01*
X10117205Y-10692674D02*
X10117205Y-10711722D01*
M02*
