M48
; DRILL file {KiCad 7.0.10} date Sat Jan 27 03:33:37 2024
; FORMAT={-:-/ absolute / metric / decimal}
; #@! TF.CreationDate,2024-01-27T03:33:37-06:00
; #@! TF.GenerationSoftware,Kicad,Pcbnew,7.0.10
; #@! TF.FileFunction,Plated,1,4,PTH
FMAT,2
METRIC
; #@! TA.AperFunction,Plated,PTH,ViaDrill
T1C0.300
; #@! TA.AperFunction,Plated,PTH,ComponentDrill
T2C0.600
; #@! TA.AperFunction,Plated,PTH,ComponentDrill
T3C0.700
; #@! TA.AperFunction,Plated,PTH,ComponentDrill
T4C1.000
%
G90
G05
T1
X85.4Y-89.2
X86.7Y-89.1
X87.2Y-83.7
X87.3Y-86.4
X87.9Y-64.4
X87.9Y-65.1
X87.9Y-65.8
X88.0Y-66.8
X88.3Y-80.1
X88.6Y-64.4
X88.6Y-65.1
X88.7Y-66.8
X88.972Y-86.772
X89.0Y-95.0
X89.1Y-66.2
X89.1Y-78.2
X89.1Y-92.7
X89.2Y-77.2
X89.4Y-66.8
X89.4Y-100.1
X89.4Y-100.9
X89.8Y-95.0
X89.9Y-84.2
X89.966Y-80.264
X90.1Y-66.1
X90.1Y-66.8
X90.2Y-100.1
X90.2Y-100.9
X90.401Y-79.004
X90.5Y-83.5
X90.8Y-66.1
X90.8Y-66.8
X90.9Y-85.3
X91.0Y-100.1
X91.0Y-100.9
X91.2Y-60.9
X91.2Y-61.6
X91.3Y-93.0
X91.4Y-82.7
X91.424Y-76.076
X91.5Y-66.1
X91.5Y-66.8
X91.5Y-70.3
X91.5Y-72.4
X91.5Y-85.8
X91.9Y-60.9
X91.9Y-61.6
X92.0Y-92.3
X92.1Y-84.6
X92.2Y-66.8
X92.2Y-77.3
X92.2Y-78.0
X92.5Y-86.7
X92.5Y-91.7
X92.6Y-85.5
X92.7Y-75.9
X92.7Y-83.9
X92.9Y-81.5
X93.2Y-72.5
X93.5Y-80.6
X93.5Y-87.9
X93.6Y-82.4
X93.9Y-66.4
X93.9Y-78.9
X94.1Y-87.2
X94.8Y-80.9
X94.9Y-66.4
X94.9Y-76.4
X95.5Y-76.1
X95.8Y-86.0
X96.0Y-96.6
X96.0Y-97.3
X96.0Y-98.0
X96.3Y-63.9
X96.3Y-82.6
X96.5Y-60.9
X96.5Y-61.6
X96.5Y-78.7
X96.7Y-96.6
X96.7Y-97.3
X97.2Y-60.9
X97.2Y-61.6
X97.4Y-76.4
X97.5Y-84.6
X97.8Y-66.8
X97.9Y-98.4
X98.1Y-76.4
X98.8Y-71.3
X98.8Y-72.2
X100.1Y-84.5
X100.2Y-83.4
T4
X86.26Y-57.38
X86.26Y-59.92
X86.26Y-62.46
X86.26Y-65.0
X86.26Y-67.54
X86.26Y-70.08
X86.26Y-72.62
X86.26Y-75.16
X86.26Y-77.7
X86.26Y-80.24
X86.26Y-82.78
X86.26Y-85.32
X86.26Y-87.86
X86.26Y-90.4
X86.26Y-92.94
X86.26Y-95.48
X86.26Y-98.02
X86.26Y-100.56
X86.26Y-103.1
X90.08Y-103.1
X92.62Y-103.1
X95.16Y-103.1
X97.7Y-103.1
X101.5Y-57.38
X101.5Y-59.92
X101.5Y-62.46
X101.5Y-65.0
X101.5Y-67.54
X101.5Y-70.08
X101.5Y-72.62
X101.5Y-75.16
X101.5Y-77.7
X101.5Y-80.24
X101.5Y-82.78
X101.5Y-85.32
X101.5Y-87.86
X101.5Y-90.4
X101.5Y-92.94
X101.5Y-95.48
X101.5Y-98.02
X101.5Y-100.56
X101.5Y-103.1
T2
X89.1Y-60.425G85X89.1Y-59.325
G05
X98.7Y-60.425G85X98.7Y-59.325
G05
T3
X89.1Y-57.025G85X89.1Y-56.025
G05
X98.7Y-57.025G85X98.7Y-56.025
G05
M30
