G04 #@! TF.GenerationSoftware,KiCad,Pcbnew,7.0.10*
G04 #@! TF.CreationDate,2024-01-27T03:33:41-06:00*
G04 #@! TF.ProjectId,STM32H503CBT6,53544d33-3248-4353-9033-434254362e6b,rev?*
G04 #@! TF.SameCoordinates,Original*
G04 #@! TF.FileFunction,Soldermask,Top*
G04 #@! TF.FilePolarity,Negative*
%FSLAX46Y46*%
G04 Gerber Fmt 4.6, Leading zero omitted, Abs format (unit mm)*
G04 Created by KiCad (PCBNEW 7.0.10) date 2024-01-27 03:33:41*
%MOMM*%
%LPD*%
G01*
G04 APERTURE LIST*
G04 Aperture macros list*
%AMRoundRect*
0 Rectangle with rounded corners*
0 $1 Rounding radius*
0 $2 $3 $4 $5 $6 $7 $8 $9 X,Y pos of 4 corners*
0 Add a 4 corners polygon primitive as box body*
4,1,4,$2,$3,$4,$5,$6,$7,$8,$9,$2,$3,0*
0 Add four circle primitives for the rounded corners*
1,1,$1+$1,$2,$3*
1,1,$1+$1,$4,$5*
1,1,$1+$1,$6,$7*
1,1,$1+$1,$8,$9*
0 Add four rect primitives between the rounded corners*
20,1,$1+$1,$2,$3,$4,$5,0*
20,1,$1+$1,$4,$5,$6,$7,0*
20,1,$1+$1,$6,$7,$8,$9,0*
20,1,$1+$1,$8,$9,$2,$3,0*%
%AMRotRect*
0 Rectangle, with rotation*
0 The origin of the aperture is its center*
0 $1 length*
0 $2 width*
0 $3 Rotation angle, in degrees counterclockwise*
0 Add horizontal line*
21,1,$1,$2,0,0,$3*%
%AMFreePoly0*
4,1,5,0.225000,-0.095000,-0.035000,-0.095000,-0.035000,0.095000,0.035000,0.095000,0.225000,-0.095000,0.225000,-0.095000,$1*%
%AMFreePoly1*
4,1,6,0.035000,-0.095000,-0.035000,-0.095000,-0.225000,-0.095000,-0.035000,0.095000,0.035000,0.095000,0.035000,-0.095000,0.035000,-0.095000,$1*%
G04 Aperture macros list end*
%ADD10RotRect,0.600000X1.600000X315.000000*%
%ADD11RoundRect,0.135000X-0.185000X0.135000X-0.185000X-0.135000X0.185000X-0.135000X0.185000X0.135000X0*%
%ADD12RoundRect,0.140000X0.170000X-0.140000X0.170000X0.140000X-0.170000X0.140000X-0.170000X-0.140000X0*%
%ADD13RoundRect,0.075000X-0.415425X-0.521491X0.521491X0.415425X0.415425X0.521491X-0.521491X-0.415425X0*%
%ADD14RoundRect,0.075000X0.415425X-0.521491X0.521491X-0.415425X-0.415425X0.521491X-0.521491X0.415425X0*%
%ADD15RoundRect,0.218750X-0.256250X0.218750X-0.256250X-0.218750X0.256250X-0.218750X0.256250X0.218750X0*%
%ADD16FreePoly0,270.000000*%
%ADD17R,0.200000X0.260000*%
%ADD18RotRect,0.520000X0.520000X315.000000*%
%ADD19FreePoly1,270.000000*%
%ADD20FreePoly0,90.000000*%
%ADD21FreePoly1,90.000000*%
%ADD22RoundRect,0.140000X-0.170000X0.140000X-0.170000X-0.140000X0.170000X-0.140000X0.170000X0.140000X0*%
%ADD23RoundRect,0.150000X-0.150000X0.587500X-0.150000X-0.587500X0.150000X-0.587500X0.150000X0.587500X0*%
%ADD24RoundRect,0.112500X-0.187500X-0.112500X0.187500X-0.112500X0.187500X0.112500X-0.187500X0.112500X0*%
%ADD25RoundRect,0.135000X0.185000X-0.135000X0.185000X0.135000X-0.185000X0.135000X-0.185000X-0.135000X0*%
%ADD26RoundRect,0.140000X-0.219203X-0.021213X-0.021213X-0.219203X0.219203X0.021213X0.021213X0.219203X0*%
%ADD27RoundRect,0.140000X-0.140000X-0.170000X0.140000X-0.170000X0.140000X0.170000X-0.140000X0.170000X0*%
%ADD28R,1.100000X1.800000*%
%ADD29R,1.800000X1.000000*%
%ADD30RoundRect,0.140000X-0.021213X0.219203X-0.219203X0.021213X0.021213X-0.219203X0.219203X-0.021213X0*%
%ADD31RoundRect,0.218750X0.335876X0.026517X0.026517X0.335876X-0.335876X-0.026517X-0.026517X-0.335876X0*%
%ADD32RoundRect,0.140000X0.021213X-0.219203X0.219203X-0.021213X-0.021213X0.219203X-0.219203X0.021213X0*%
%ADD33RoundRect,0.250000X0.250000X0.475000X-0.250000X0.475000X-0.250000X-0.475000X0.250000X-0.475000X0*%
%ADD34R,0.400000X1.050000*%
%ADD35O,1.400000X2.500000*%
%ADD36O,1.300000X2.300000*%
%ADD37R,1.700000X1.700000*%
%ADD38O,1.700000X1.700000*%
G04 APERTURE END LIST*
D10*
X88451472Y-88002944D03*
X89300000Y-88851472D03*
X90148528Y-89700000D03*
D11*
X93900000Y-64490000D03*
X93900000Y-65510000D03*
D12*
X99500000Y-84680000D03*
X99500000Y-83720000D03*
D13*
X89052675Y-85171573D03*
X89406229Y-85525127D03*
X89759782Y-85878680D03*
X90113336Y-86232234D03*
X90466889Y-86585787D03*
X90820442Y-86939340D03*
X91173996Y-87292894D03*
X91527549Y-87646447D03*
X91881102Y-88000000D03*
X92234656Y-88353554D03*
X92588209Y-88707107D03*
X92941763Y-89060661D03*
D14*
X94939339Y-89060661D03*
X95292893Y-88707107D03*
X95646446Y-88353554D03*
X96000000Y-88000000D03*
X96353553Y-87646447D03*
X96707106Y-87292894D03*
X97060660Y-86939340D03*
X97414213Y-86585787D03*
X97767766Y-86232234D03*
X98121320Y-85878680D03*
X98474873Y-85525127D03*
X98828427Y-85171573D03*
D13*
X98828427Y-83173997D03*
X98474873Y-82820443D03*
X98121320Y-82466890D03*
X97767766Y-82113336D03*
X97414213Y-81759783D03*
X97060660Y-81406230D03*
X96707106Y-81052676D03*
X96353553Y-80699123D03*
X96000000Y-80345570D03*
X95646446Y-79992016D03*
X95292893Y-79638463D03*
X94939339Y-79284909D03*
D14*
X92941763Y-79284909D03*
X92588209Y-79638463D03*
X92234656Y-79992016D03*
X91881102Y-80345570D03*
X91527549Y-80699123D03*
X91173996Y-81052676D03*
X90820442Y-81406230D03*
X90466889Y-81759783D03*
X90113336Y-82113336D03*
X89759782Y-82466890D03*
X89406229Y-82820443D03*
X89052675Y-83173997D03*
D15*
X98600000Y-63112500D03*
X98600000Y-64687500D03*
X97000000Y-63112500D03*
X97000000Y-64687500D03*
D16*
X90400000Y-64560000D03*
D17*
X90205000Y-64655000D03*
D18*
X90705000Y-64980000D03*
D17*
X90205000Y-65305000D03*
D19*
X90400000Y-65400000D03*
D17*
X91205000Y-65305000D03*
D20*
X91010000Y-65400000D03*
D21*
X91010000Y-64560000D03*
D17*
X91205000Y-64655000D03*
D22*
X90700000Y-95340000D03*
X90700000Y-96300000D03*
D23*
X98650000Y-98425000D03*
X96750000Y-98425000D03*
X97700000Y-100300000D03*
D24*
X93100000Y-63100000D03*
X95200000Y-63100000D03*
D25*
X90850000Y-75420000D03*
X90850000Y-74400000D03*
D22*
X92005000Y-64600000D03*
X92005000Y-65560000D03*
D26*
X90621178Y-91021178D03*
X91300000Y-91700000D03*
D22*
X88000000Y-83320000D03*
X88000000Y-84280000D03*
D12*
X90700000Y-94600000D03*
X90700000Y-93640000D03*
D27*
X95920000Y-75100000D03*
X96880000Y-75100000D03*
D28*
X89350000Y-74500000D03*
X89350000Y-68300000D03*
X93050000Y-74500000D03*
X93050000Y-68300000D03*
D26*
X91260589Y-90360589D03*
X91939411Y-91039411D03*
D28*
X98300000Y-68300000D03*
X98300000Y-74500000D03*
X94600000Y-68300000D03*
X94600000Y-74500000D03*
D29*
X88900000Y-96250000D03*
X88900000Y-93750000D03*
D25*
X94900000Y-65510000D03*
X94900000Y-64490000D03*
D30*
X99739411Y-86060589D03*
X99060589Y-86739411D03*
D25*
X97000000Y-66800000D03*
X97000000Y-65780000D03*
X98600000Y-66800000D03*
X98600000Y-65780000D03*
D22*
X89405000Y-64600000D03*
X89405000Y-65560000D03*
D31*
X90413694Y-92513694D03*
X89300000Y-91400000D03*
D32*
X88121178Y-82278822D03*
X88800000Y-81600000D03*
D23*
X90150000Y-77825000D03*
X88250000Y-77825000D03*
X89200000Y-79700000D03*
D11*
X91850000Y-74390000D03*
X91850000Y-75410000D03*
D33*
X95100000Y-77500000D03*
X93200000Y-77500000D03*
D34*
X95200000Y-60500000D03*
X94550000Y-60500000D03*
X93900000Y-60500000D03*
X93250000Y-60500000D03*
X92600000Y-60500000D03*
D35*
X98700000Y-59875000D03*
D36*
X98700000Y-56525000D03*
D35*
X89100000Y-59875000D03*
D36*
X89100000Y-56525000D03*
D12*
X88000000Y-85880000D03*
X88000000Y-84920000D03*
D37*
X90080000Y-103100000D03*
D38*
X92620000Y-103100000D03*
X95160000Y-103100000D03*
X97700000Y-103100000D03*
D37*
X101500000Y-57380000D03*
D38*
X101500000Y-59920000D03*
X101500000Y-62460000D03*
X101500000Y-65000000D03*
X101500000Y-67540000D03*
X101500000Y-70080000D03*
X101500000Y-72620000D03*
X101500000Y-75160000D03*
X101500000Y-77700000D03*
X101500000Y-80240000D03*
X101500000Y-82780000D03*
X101500000Y-85320000D03*
X101500000Y-87860000D03*
X101500000Y-90400000D03*
X101500000Y-92940000D03*
X101500000Y-95480000D03*
X101500000Y-98020000D03*
X101500000Y-100560000D03*
X101500000Y-103100000D03*
D37*
X86260000Y-57380000D03*
D38*
X86260000Y-59920000D03*
X86260000Y-62460000D03*
X86260000Y-65000000D03*
X86260000Y-67540000D03*
X86260000Y-70080000D03*
X86260000Y-72620000D03*
X86260000Y-75160000D03*
X86260000Y-77700000D03*
X86260000Y-80240000D03*
X86260000Y-82780000D03*
X86260000Y-85320000D03*
X86260000Y-87860000D03*
X86260000Y-90400000D03*
X86260000Y-92940000D03*
X86260000Y-95480000D03*
X86260000Y-98020000D03*
X86260000Y-100560000D03*
X86260000Y-103100000D03*
M02*
